<mxfile host="app.diagrams.net" agent="Mozilla/5.0 (Windows NT 10.0; Win64; x64) AppleWebKit/537.36 (KHTML, like Gecko) Chrome/133.0.0.0 Safari/537.36" version="26.0.16">
  <diagram name="Page-1" id="QyKzzR-DpQjyUraL0REL">
    <mxGraphModel dx="3017" dy="883" grid="1" gridSize="10" guides="1" tooltips="1" connect="1" arrows="1" fold="1" page="1" pageScale="1" pageWidth="827" pageHeight="1169" math="0" shadow="0">
      <root>
        <mxCell id="0" />
        <mxCell id="1" parent="0" />
        <mxCell id="NrqMM1b8UnGH21ajet8I-1" value="" style="rounded=1;whiteSpace=wrap;html=1;" vertex="1" parent="1">
          <mxGeometry x="210" y="150" width="140" height="130" as="geometry" />
        </mxCell>
        <mxCell id="NrqMM1b8UnGH21ajet8I-2" value="SIM FEEDBACK (FB)" style="rounded=1;whiteSpace=wrap;html=1;" vertex="1" parent="1">
          <mxGeometry x="245" y="230" width="70" height="40" as="geometry" />
        </mxCell>
        <mxCell id="NrqMM1b8UnGH21ajet8I-3" value="JEU" style="rounded=1;whiteSpace=wrap;html=1;" vertex="1" parent="1">
          <mxGeometry x="245" y="170" width="70" height="40" as="geometry" />
        </mxCell>
        <mxCell id="NrqMM1b8UnGH21ajet8I-4" value="STM" style="rounded=1;whiteSpace=wrap;html=1;fillColor=#f8cecc;strokeColor=#b85450;" vertex="1" parent="1">
          <mxGeometry x="414" y="180" width="120" height="60" as="geometry" />
        </mxCell>
        <mxCell id="NrqMM1b8UnGH21ajet8I-5" value="BLDC DRIVER" style="rounded=1;whiteSpace=wrap;html=1;fillColor=#f8cecc;strokeColor=#b85450;" vertex="1" parent="1">
          <mxGeometry x="770" y="200" width="120" height="60" as="geometry" />
        </mxCell>
        <mxCell id="NrqMM1b8UnGH21ajet8I-6" value="MOTEUR" style="rounded=1;whiteSpace=wrap;html=1;fillColor=#f8cecc;strokeColor=#b85450;" vertex="1" parent="1">
          <mxGeometry x="960" y="200" width="120" height="60" as="geometry" />
        </mxCell>
        <mxCell id="NrqMM1b8UnGH21ajet8I-7" value="24V DC&lt;div&gt;80 A&lt;/div&gt;" style="text;html=1;align=center;verticalAlign=middle;whiteSpace=wrap;rounded=0;" vertex="1" parent="1">
          <mxGeometry x="760" y="140" width="60" height="30" as="geometry" />
        </mxCell>
        <mxCell id="NrqMM1b8UnGH21ajet8I-8" value="STM" style="rounded=1;whiteSpace=wrap;html=1;fillColor=#d5e8d4;strokeColor=#82b366;" vertex="1" parent="1">
          <mxGeometry x="414" y="440" width="120" height="60" as="geometry" />
        </mxCell>
        <mxCell id="NrqMM1b8UnGH21ajet8I-9" value="HUB" style="rounded=1;whiteSpace=wrap;html=1;" vertex="1" parent="1">
          <mxGeometry x="235" y="330" width="90" height="30" as="geometry" />
        </mxCell>
        <mxCell id="NrqMM1b8UnGH21ajet8I-10" value="LDO" style="rounded=1;whiteSpace=wrap;html=1;fillColor=#d5e8d4;strokeColor=#82b366;" vertex="1" parent="1">
          <mxGeometry x="435" y="390" width="90" height="20" as="geometry" />
        </mxCell>
        <mxCell id="NrqMM1b8UnGH21ajet8I-11" value="BUCK" style="rounded=1;whiteSpace=wrap;html=1;fillColor=#d5e8d4;strokeColor=#82b366;" vertex="1" parent="1">
          <mxGeometry x="590" y="340" width="120" height="40" as="geometry" />
        </mxCell>
        <mxCell id="NrqMM1b8UnGH21ajet8I-36" style="edgeStyle=orthogonalEdgeStyle;rounded=0;orthogonalLoop=1;jettySize=auto;html=1;exitX=1;exitY=0.5;exitDx=0;exitDy=0;entryX=0.5;entryY=0;entryDx=0;entryDy=0;" edge="1" parent="1" source="NrqMM1b8UnGH21ajet8I-12" target="NrqMM1b8UnGH21ajet8I-5">
          <mxGeometry relative="1" as="geometry" />
        </mxCell>
        <mxCell id="NrqMM1b8UnGH21ajet8I-12" value="ALIM" style="rounded=1;whiteSpace=wrap;html=1;fillColor=#f8cecc;strokeColor=#b85450;" vertex="1" parent="1">
          <mxGeometry x="420" y="70" width="120" height="60" as="geometry" />
        </mxCell>
        <mxCell id="NrqMM1b8UnGH21ajet8I-13" value="ALIM" style="rounded=1;whiteSpace=wrap;html=1;fillColor=#d5e8d4;strokeColor=#82b366;" vertex="1" parent="1">
          <mxGeometry x="780" y="347.5" width="80" height="25" as="geometry" />
        </mxCell>
        <mxCell id="NrqMM1b8UnGH21ajet8I-14" value="STEPPER DRIVER" style="rounded=1;whiteSpace=wrap;html=1;fillColor=#d5e8d4;strokeColor=#82b366;" vertex="1" parent="1">
          <mxGeometry x="630" y="440" width="120" height="60" as="geometry" />
        </mxCell>
        <mxCell id="NrqMM1b8UnGH21ajet8I-15" value="MOTEUR" style="rounded=1;whiteSpace=wrap;html=1;fillColor=#d5e8d4;strokeColor=#82b366;" vertex="1" parent="1">
          <mxGeometry x="950" y="440" width="120" height="60" as="geometry" />
        </mxCell>
        <mxCell id="NrqMM1b8UnGH21ajet8I-16" value="LOAD CELL&lt;div&gt;(jauge de contrainte)&lt;/div&gt;" style="rounded=1;whiteSpace=wrap;html=1;fillColor=#d5e8d4;strokeColor=#82b366;" vertex="1" parent="1">
          <mxGeometry x="414" y="550" width="120" height="60" as="geometry" />
        </mxCell>
        <mxCell id="NrqMM1b8UnGH21ajet8I-17" value="" style="endArrow=classic;html=1;rounded=0;exitX=0.5;exitY=1;exitDx=0;exitDy=0;entryX=0.5;entryY=0;entryDx=0;entryDy=0;" edge="1" parent="1" source="NrqMM1b8UnGH21ajet8I-3" target="NrqMM1b8UnGH21ajet8I-2">
          <mxGeometry width="50" height="50" relative="1" as="geometry">
            <mxPoint x="540" y="460" as="sourcePoint" />
            <mxPoint x="590" y="410" as="targetPoint" />
          </mxGeometry>
        </mxCell>
        <mxCell id="NrqMM1b8UnGH21ajet8I-18" value="" style="endArrow=classic;html=1;rounded=0;exitX=0.5;exitY=1;exitDx=0;exitDy=0;entryX=0.5;entryY=0;entryDx=0;entryDy=0;" edge="1" parent="1" source="NrqMM1b8UnGH21ajet8I-1" target="NrqMM1b8UnGH21ajet8I-9">
          <mxGeometry width="50" height="50" relative="1" as="geometry">
            <mxPoint x="270" y="320" as="sourcePoint" />
            <mxPoint x="320" y="270" as="targetPoint" />
          </mxGeometry>
        </mxCell>
        <mxCell id="NrqMM1b8UnGH21ajet8I-19" value="USB C" style="text;html=1;align=center;verticalAlign=middle;whiteSpace=wrap;rounded=0;" vertex="1" parent="1">
          <mxGeometry x="280" y="290" width="60" height="30" as="geometry" />
        </mxCell>
        <mxCell id="NrqMM1b8UnGH21ajet8I-20" value="POUR LES SCHEMAS KiCad, AJOUTER LE CHAMP MPN (manufacturer ... = Référence du fabricant)" style="text;html=1;align=center;verticalAlign=middle;whiteSpace=wrap;rounded=0;fillColor=#f8cecc;strokeColor=#b85450;" vertex="1" parent="1">
          <mxGeometry x="95" y="750" width="370" height="30" as="geometry" />
        </mxCell>
        <mxCell id="NrqMM1b8UnGH21ajet8I-21" value="" style="endArrow=classic;html=1;rounded=0;exitX=1;exitY=0.5;exitDx=0;exitDy=0;entryX=0;entryY=0.5;entryDx=0;entryDy=0;" edge="1" parent="1" source="NrqMM1b8UnGH21ajet8I-9" target="NrqMM1b8UnGH21ajet8I-4">
          <mxGeometry width="50" height="50" relative="1" as="geometry">
            <mxPoint x="540" y="320" as="sourcePoint" />
            <mxPoint x="590" y="270" as="targetPoint" />
            <Array as="points">
              <mxPoint x="360" y="345" />
              <mxPoint x="360" y="280" />
              <mxPoint x="400" y="280" />
              <mxPoint x="400" y="210" />
            </Array>
          </mxGeometry>
        </mxCell>
        <mxCell id="NrqMM1b8UnGH21ajet8I-22" value="" style="endArrow=classic;html=1;rounded=0;entryX=1;entryY=0.5;entryDx=0;entryDy=0;exitX=0;exitY=0.5;exitDx=0;exitDy=0;" edge="1" parent="1" source="NrqMM1b8UnGH21ajet8I-11" target="NrqMM1b8UnGH21ajet8I-9">
          <mxGeometry width="50" height="50" relative="1" as="geometry">
            <mxPoint x="540" y="320" as="sourcePoint" />
            <mxPoint x="590" y="270" as="targetPoint" />
            <Array as="points">
              <mxPoint x="480" y="360" />
              <mxPoint x="480" y="345" />
            </Array>
          </mxGeometry>
        </mxCell>
        <mxCell id="NrqMM1b8UnGH21ajet8I-23" value="" style="endArrow=classic;html=1;rounded=0;entryX=0.5;entryY=0;entryDx=0;entryDy=0;exitX=0.433;exitY=0.95;exitDx=0;exitDy=0;exitPerimeter=0;" edge="1" parent="1" source="NrqMM1b8UnGH21ajet8I-10" target="NrqMM1b8UnGH21ajet8I-8">
          <mxGeometry width="50" height="50" relative="1" as="geometry">
            <mxPoint x="540" y="320" as="sourcePoint" />
            <mxPoint x="590" y="270" as="targetPoint" />
          </mxGeometry>
        </mxCell>
        <mxCell id="NrqMM1b8UnGH21ajet8I-24" value="" style="endArrow=classic;html=1;rounded=0;entryX=0.5;entryY=0;entryDx=0;entryDy=0;exitX=0;exitY=0.5;exitDx=0;exitDy=0;" edge="1" parent="1" source="NrqMM1b8UnGH21ajet8I-11" target="NrqMM1b8UnGH21ajet8I-10">
          <mxGeometry width="50" height="50" relative="1" as="geometry">
            <mxPoint x="480" y="360" as="sourcePoint" />
            <mxPoint x="590" y="270" as="targetPoint" />
            <Array as="points">
              <mxPoint x="480" y="360" />
            </Array>
          </mxGeometry>
        </mxCell>
        <mxCell id="NrqMM1b8UnGH21ajet8I-25" value="" style="endArrow=classic;html=1;rounded=0;exitX=1;exitY=0.25;exitDx=0;exitDy=0;entryX=0;entryY=0.25;entryDx=0;entryDy=0;" edge="1" parent="1" source="NrqMM1b8UnGH21ajet8I-8" target="NrqMM1b8UnGH21ajet8I-14">
          <mxGeometry width="50" height="50" relative="1" as="geometry">
            <mxPoint x="540" y="320" as="sourcePoint" />
            <mxPoint x="590" y="270" as="targetPoint" />
            <Array as="points" />
          </mxGeometry>
        </mxCell>
        <mxCell id="NrqMM1b8UnGH21ajet8I-27" value="" style="endArrow=classic;html=1;rounded=0;exitX=1;exitY=0.75;exitDx=0;exitDy=0;" edge="1" parent="1" source="NrqMM1b8UnGH21ajet8I-8">
          <mxGeometry width="50" height="50" relative="1" as="geometry">
            <mxPoint x="760" y="465" as="sourcePoint" />
            <mxPoint x="630" y="485" as="targetPoint" />
            <Array as="points" />
          </mxGeometry>
        </mxCell>
        <mxCell id="NrqMM1b8UnGH21ajet8I-28" value="STEP (PWM)" style="text;html=1;align=center;verticalAlign=middle;whiteSpace=wrap;rounded=0;" vertex="1" parent="1">
          <mxGeometry x="550" y="420" width="60" height="30" as="geometry" />
        </mxCell>
        <mxCell id="NrqMM1b8UnGH21ajet8I-30" value="DIR" style="text;html=1;align=center;verticalAlign=middle;whiteSpace=wrap;rounded=0;" vertex="1" parent="1">
          <mxGeometry x="550" y="490" width="60" height="30" as="geometry" />
        </mxCell>
        <mxCell id="NrqMM1b8UnGH21ajet8I-32" value="" style="endArrow=classic;html=1;rounded=0;exitX=0.5;exitY=0;exitDx=0;exitDy=0;entryX=0.5;entryY=1;entryDx=0;entryDy=0;" edge="1" parent="1" source="NrqMM1b8UnGH21ajet8I-16" target="NrqMM1b8UnGH21ajet8I-8">
          <mxGeometry width="50" height="50" relative="1" as="geometry">
            <mxPoint x="540" y="420" as="sourcePoint" />
            <mxPoint x="590" y="370" as="targetPoint" />
          </mxGeometry>
        </mxCell>
        <mxCell id="NrqMM1b8UnGH21ajet8I-33" value="&lt;div&gt;ADC&lt;/div&gt;(0 -&amp;gt; 3.3V)" style="text;html=1;align=center;verticalAlign=middle;whiteSpace=wrap;rounded=0;" vertex="1" parent="1">
          <mxGeometry x="480" y="510" width="60" height="30" as="geometry" />
        </mxCell>
        <mxCell id="NrqMM1b8UnGH21ajet8I-34" value="USB C * n" style="text;html=1;align=center;verticalAlign=middle;whiteSpace=wrap;rounded=0;" vertex="1" parent="1">
          <mxGeometry x="360" y="280" width="60" height="30" as="geometry" />
        </mxCell>
        <mxCell id="NrqMM1b8UnGH21ajet8I-35" value="" style="endArrow=classic;html=1;rounded=0;exitX=0;exitY=0.5;exitDx=0;exitDy=0;entryX=1;entryY=0.5;entryDx=0;entryDy=0;" edge="1" parent="1" source="NrqMM1b8UnGH21ajet8I-13" target="NrqMM1b8UnGH21ajet8I-11">
          <mxGeometry width="50" height="50" relative="1" as="geometry">
            <mxPoint x="540" y="320" as="sourcePoint" />
            <mxPoint x="590" y="270" as="targetPoint" />
            <Array as="points">
              <mxPoint x="740" y="360" />
            </Array>
          </mxGeometry>
        </mxCell>
        <mxCell id="NrqMM1b8UnGH21ajet8I-37" value="" style="endArrow=classic;html=1;rounded=0;exitX=0.578;exitY=1.05;exitDx=0;exitDy=0;exitPerimeter=0;entryX=0;entryY=0.5;entryDx=0;entryDy=0;" edge="1" parent="1" source="NrqMM1b8UnGH21ajet8I-9" target="NrqMM1b8UnGH21ajet8I-8">
          <mxGeometry width="50" height="50" relative="1" as="geometry">
            <mxPoint x="540" y="320" as="sourcePoint" />
            <mxPoint x="590" y="270" as="targetPoint" />
            <Array as="points">
              <mxPoint x="287" y="470" />
            </Array>
          </mxGeometry>
        </mxCell>
        <mxCell id="NrqMM1b8UnGH21ajet8I-38" value="USB" style="text;html=1;align=center;verticalAlign=middle;whiteSpace=wrap;rounded=0;" vertex="1" parent="1">
          <mxGeometry x="290" y="430" width="60" height="30" as="geometry" />
        </mxCell>
        <mxCell id="NrqMM1b8UnGH21ajet8I-40" value="3,3V" style="text;html=1;align=center;verticalAlign=middle;whiteSpace=wrap;rounded=0;" vertex="1" parent="1">
          <mxGeometry x="480" y="410" width="60" height="30" as="geometry" />
        </mxCell>
        <mxCell id="NrqMM1b8UnGH21ajet8I-41" value="5V" style="text;html=1;align=center;verticalAlign=middle;whiteSpace=wrap;rounded=0;" vertex="1" parent="1">
          <mxGeometry x="500" y="330" width="60" height="30" as="geometry" />
        </mxCell>
        <mxCell id="NrqMM1b8UnGH21ajet8I-42" value="???&lt;div&gt;(regarder Trinamic)&lt;/div&gt;" style="text;html=1;align=center;verticalAlign=middle;whiteSpace=wrap;rounded=0;" vertex="1" parent="1">
          <mxGeometry x="720" y="370" width="60" height="30" as="geometry" />
        </mxCell>
        <mxCell id="NrqMM1b8UnGH21ajet8I-43" value="" style="endArrow=none;html=1;rounded=0;exitX=1;exitY=0.5;exitDx=0;exitDy=0;entryX=0;entryY=0.5;entryDx=0;entryDy=0;" edge="1" parent="1" source="NrqMM1b8UnGH21ajet8I-5" target="NrqMM1b8UnGH21ajet8I-6">
          <mxGeometry width="50" height="50" relative="1" as="geometry">
            <mxPoint x="740" y="340" as="sourcePoint" />
            <mxPoint x="790" y="290" as="targetPoint" />
          </mxGeometry>
        </mxCell>
        <mxCell id="NrqMM1b8UnGH21ajet8I-44" value="Triphasé" style="text;html=1;align=center;verticalAlign=middle;whiteSpace=wrap;rounded=0;" vertex="1" parent="1">
          <mxGeometry x="900" y="200" width="60" height="30" as="geometry" />
        </mxCell>
        <mxCell id="NrqMM1b8UnGH21ajet8I-46" value="" style="endArrow=classic;html=1;rounded=0;exitX=0;exitY=0.75;exitDx=0;exitDy=0;entryX=1;entryY=0.75;entryDx=0;entryDy=0;" edge="1" parent="1" source="NrqMM1b8UnGH21ajet8I-6" target="NrqMM1b8UnGH21ajet8I-5">
          <mxGeometry width="50" height="50" relative="1" as="geometry">
            <mxPoint x="740" y="340" as="sourcePoint" />
            <mxPoint x="790" y="290" as="targetPoint" />
          </mxGeometry>
        </mxCell>
        <mxCell id="NrqMM1b8UnGH21ajet8I-47" value="V,I" style="text;html=1;align=center;verticalAlign=middle;whiteSpace=wrap;rounded=0;" vertex="1" parent="1">
          <mxGeometry x="900" y="250" width="60" height="30" as="geometry" />
        </mxCell>
        <mxCell id="NrqMM1b8UnGH21ajet8I-48" value="" style="endArrow=classic;html=1;rounded=0;entryX=0.5;entryY=0;entryDx=0;entryDy=0;" edge="1" parent="1" target="NrqMM1b8UnGH21ajet8I-12">
          <mxGeometry width="50" height="50" relative="1" as="geometry">
            <mxPoint x="480" y="20" as="sourcePoint" />
            <mxPoint x="590" y="270" as="targetPoint" />
          </mxGeometry>
        </mxCell>
        <mxCell id="NrqMM1b8UnGH21ajet8I-51" value="230 V AC" style="text;html=1;align=center;verticalAlign=middle;whiteSpace=wrap;rounded=0;" vertex="1" parent="1">
          <mxGeometry x="490" y="30" width="60" height="30" as="geometry" />
        </mxCell>
        <mxCell id="NrqMM1b8UnGH21ajet8I-52" value="500 W * 4 =&lt;div&gt;2 kW&lt;/div&gt;" style="text;html=1;align=center;verticalAlign=middle;whiteSpace=wrap;rounded=0;" vertex="1" parent="1">
          <mxGeometry x="560" y="60" width="60" height="30" as="geometry" />
        </mxCell>
        <mxCell id="NrqMM1b8UnGH21ajet8I-54" value="" style="endArrow=classic;html=1;rounded=0;exitX=0;exitY=0;exitDx=0;exitDy=0;entryX=1;entryY=0;entryDx=0;entryDy=0;" edge="1" parent="1" source="NrqMM1b8UnGH21ajet8I-11" target="NrqMM1b8UnGH21ajet8I-9">
          <mxGeometry width="50" height="50" relative="1" as="geometry">
            <mxPoint x="540" y="420" as="sourcePoint" />
            <mxPoint x="590" y="370" as="targetPoint" />
            <Array as="points">
              <mxPoint x="550" y="340" />
              <mxPoint x="550" y="330" />
            </Array>
          </mxGeometry>
        </mxCell>
        <mxCell id="NrqMM1b8UnGH21ajet8I-56" value="" style="rounded=1;whiteSpace=wrap;html=1;fillColor=none;arcSize=25;strokeColor=#b85450;" vertex="1" parent="1">
          <mxGeometry x="700" y="135" width="420" height="150" as="geometry" />
        </mxCell>
        <mxCell id="NrqMM1b8UnGH21ajet8I-57" value="4X" style="text;html=1;align=center;verticalAlign=middle;whiteSpace=wrap;rounded=0;fillColor=none;strokeColor=light-dark(#fd1a12, #d7817e);" vertex="1" parent="1">
          <mxGeometry x="1040" y="140" width="60" height="30" as="geometry" />
        </mxCell>
        <mxCell id="NrqMM1b8UnGH21ajet8I-58" value="" style="endArrow=classic;html=1;rounded=0;entryX=0;entryY=0.25;entryDx=0;entryDy=0;" edge="1" parent="1" target="NrqMM1b8UnGH21ajet8I-5">
          <mxGeometry width="50" height="50" relative="1" as="geometry">
            <mxPoint x="730" y="215" as="sourcePoint" />
            <mxPoint x="720" y="390" as="targetPoint" />
          </mxGeometry>
        </mxCell>
        <mxCell id="NrqMM1b8UnGH21ajet8I-59" value="" style="endArrow=classic;html=1;rounded=0;entryX=0;entryY=0.65;entryDx=0;entryDy=0;entryPerimeter=0;" edge="1" parent="1" target="NrqMM1b8UnGH21ajet8I-5">
          <mxGeometry width="50" height="50" relative="1" as="geometry">
            <mxPoint x="730" y="239" as="sourcePoint" />
            <mxPoint x="780" y="225" as="targetPoint" />
          </mxGeometry>
        </mxCell>
        <mxCell id="NrqMM1b8UnGH21ajet8I-60" value="DIR (GPIO)" style="text;html=1;align=center;verticalAlign=middle;whiteSpace=wrap;rounded=0;" vertex="1" parent="1">
          <mxGeometry x="700" y="180" width="60" height="30" as="geometry" />
        </mxCell>
        <mxCell id="NrqMM1b8UnGH21ajet8I-61" value="SPEED&lt;div&gt;(PWM)&lt;/div&gt;" style="text;html=1;align=center;verticalAlign=middle;whiteSpace=wrap;rounded=0;" vertex="1" parent="1">
          <mxGeometry x="710" y="240" width="60" height="30" as="geometry" />
        </mxCell>
        <mxCell id="NrqMM1b8UnGH21ajet8I-64" value="" style="endArrow=classic;html=1;rounded=0;entryX=0.5;entryY=1;entryDx=0;entryDy=0;exitX=0;exitY=0.5;exitDx=0;exitDy=0;" edge="1" parent="1" source="NrqMM1b8UnGH21ajet8I-11" target="NrqMM1b8UnGH21ajet8I-4">
          <mxGeometry width="50" height="50" relative="1" as="geometry">
            <mxPoint x="560" y="380" as="sourcePoint" />
            <mxPoint x="590" y="370" as="targetPoint" />
            <Array as="points">
              <mxPoint x="590" y="340" />
              <mxPoint x="550" y="340" />
              <mxPoint x="550" y="330" />
              <mxPoint x="474" y="330" />
            </Array>
          </mxGeometry>
        </mxCell>
        <mxCell id="NrqMM1b8UnGH21ajet8I-66" value="3,3V DC" style="text;html=1;align=center;verticalAlign=middle;whiteSpace=wrap;rounded=0;" vertex="1" parent="1">
          <mxGeometry x="474" y="250" width="60" height="30" as="geometry" />
        </mxCell>
        <mxCell id="NrqMM1b8UnGH21ajet8I-67" value="Text" style="text;html=1;align=center;verticalAlign=middle;whiteSpace=wrap;rounded=0;" vertex="1" parent="1">
          <mxGeometry x="-910" y="420" width="60" height="30" as="geometry" />
        </mxCell>
        <mxCell id="NrqMM1b8UnGH21ajet8I-69" value="4,2 A" style="text;html=1;align=center;verticalAlign=middle;whiteSpace=wrap;rounded=0;" vertex="1" parent="1">
          <mxGeometry x="800" y="420" width="60" height="30" as="geometry" />
        </mxCell>
        <mxCell id="NrqMM1b8UnGH21ajet8I-70" value="Pont H" style="rounded=0;whiteSpace=wrap;html=1;" vertex="1" parent="1">
          <mxGeometry x="760" y="490" width="180" height="235" as="geometry" />
        </mxCell>
        <mxCell id="NrqMM1b8UnGH21ajet8I-72" value="" style="shape=image;verticalLabelPosition=bottom;verticalAlign=top;imageAspect=0;aspect=fixed;image=data:image/png,iVBORw0KGgoAAAANSUhEUgAAAYgAAAHuCAYAAACF7pthAAAAAXNSR0IArs4c6QAAAARnQU1BAACxjwv8YQUAAAAJcEhZcwAADsMAAA7DAcdvqGQAAG9kSURBVHhe7d13VFRX1wbw54IURRREUSyIDStYsKKxRBOx95ZYYzd2zatJNGrU2KMmxoJdY8GaWLHErogFURQURLGiqCBdQdjfHx/3rpnDgDC0YWb/1prlcJ8zA1LuvuUUiYgIjDHGmMBI3MAYY4yBCwRjjLG0cIFgjDGmERcIxhhjGnGBYIwxphEXCMYYYxpxgWCMMaYRFwjGGGMacYFgjDGmERcIxhhjGnGBYIwxphEXCMYYYxpxgWCMMaYRFwjGGGMacYFgjDGmERcIxhhjGkm8YJD++fDhA+7du4fk5GT4+fnB1NQUlpaWsLW1RZMmTcTmjDGmkUEUiP/++w9dunRB0aJF8eLFCzHWCxERETh8+DB2794NT09PMVb06NEDK1asQJkyZcSIMcbUGESBcHR0RFBQEADA29sbDRs2FJvka4cPH0bfvn0RFxentr1NmzZwdnZG7dq18fbtW7x//x5z587F4MGDsXnzZrW2jDEmMogCMXjwYGzduhUAoG//3ZUrV2LixInKx3369EG/fv3QuHFjlCxZUq0tACxbtgxTp05FeHg4rK2txZgxxhR5dpN68uTJ+Pvvv8XN2S42NlYpDl9++aUY54ioqCgkJCSIm7NVUlISJk+erBQHY2NjnDhxArt370aXLl00FgcAaN68OQAgPDxcjBhjTE2eFYjly5dj6dKl4uZs5+fnpzz/9ttv1bLsEh0djRs3bmD48OGwtbWFlZUVzM3NMXToULFptoiKikL//v2xfPlyAECVKlVw8+ZNfP3112LTVCpXrgwAePXqlRgxxpiaPCsQjo6OuH37Nj59+iRG2er58+fKcwcHB7Usq86fP4+JEyeiaNGiaNiwITZs2IA3b96AiEBEiImJEV+SLcaNG4fdu3cDAFq2bImTJ0+idu3aYjONrK2tUb58eRgZ5dmPnjGWT+TZXkLeWfv4+IhRtnr8+LHy3N7eXi3T1uHDh1GzZk20atUKK1euBBGhbt26WLBgAW7evIn4+HhERkYqO/HsNG/ePGzbtg0A0Lp1a+zZsyfTha9MmTIoUqSIuJkxxtTkWYFo3bo1AODGjRtilK1u3bqlPK9YsaJapo358+ejS5cu8Pf3BxFh0KBBOHv2LG7cuIHp06ejXr16MDc3R5EiRSBJkvjyLPHw8MAvv/wCALCxsYG7uztKlCghNvssJycnFC5cWNzMGGNq8qxA1KpVCwCwevVqMco28kAxpPTuyeplFQ8PD8ycORNEhIEDB+LBgwfYvHkzWrZsme3FQHT//n3069dP6YW1fft2rQpeVFQUPnz4gHLlyokRY4ypydoeMwuaNm0KIyMj3Lt3D//8848YZ4uQkBDcvXsXyIazh0uXLik76E6dOmHLli1wdHTM8cIgW7FihVIc/vjjD7Rr105skiFFihTBypUrs1wsGWP6L8/2EkWLFsXs2bMBAJs2bRLjbHH+/Hnlef369dWyzAgJCcHgwYNBRLC3t8eff/6Za4UBAPbu3Yt169YBAKpXr44xY8aITTKlaNGi4ibGGEslzwoEAHTp0gVIuembEzer7927pzxv1aqVWpYZo0ePRnBwMADg1KlTKF++vNgkx7x+/RrDhg1TPl62bBmMjY3V2jDGWE7I0wLh7OwMNzc3AMCWLVvEOEs+ffqkjBOoU6eO1qOG165dq8xttHbtWjg6OopNctS2bdsQFRUFABg/frzWl5YYYyyz8nyqDR8fH7i4uAAAbt68iXr16olNtHLnzh1lbMCyZcswefJksclnXbx4ES1atAARoUOHDjhy5IjYJEdFRUXB1tYWHz9+BFK67Ga2SytjjGkrT88gAKBevXro1KkTAGDNmjVirLXbt28rz7UpOs+fP8f333+v3BieN2+e2CTHHTx4UCkO48eP5+LAGMtVeV4gAGDChAkAgA0bNmTbvYjr168rz+UutZnx888/K11kV69ejTp16ohNcpzqVCQ5NU0IY4ylRScKROvWrdG2bVsAyLbRx2fPngVSei8VL15cjNO1bt06ZbTyDz/8gNGjR4tNctyFCxeULrrt2rXTuynKGWO6TycKBACly+uSJUvw7NkzMc6UpKQkZeea2SP/f//9VykIVapUwU8//SQ2yRWnTp1Sng8YMEAtY4yx3KAzBaJx48bo3bs3kHIEnxUvX75UnleqVEktS09sbCxGjhyp3HfYsmULrKysxGa5QnVBn6ZNm6pljDGWG3SmQABAx44dgZT5jt6+fSvGGfbmzRvleWYm6Fu0aBFev34NpHQvdXV1FZvkCi8vL2Vp1K+//jpT/wfGGMsuOlUgunfvrswympUlMQMDA5XnGR1B/eDBA8ydOxdImUI7Ly/rqF5e6tGjh1rGGGO5RacKhIWFhdJzZ9q0acoAscy6cuWK8jyjN6hVV7ebMWOGWpbbjh07pjz/4osv1DLGGMsteT5QThQVFaXMFbRu3TqMGDFCbPJZlStXRnBwMFq2bKn0ZkrPs2fPlMs4zZs3V5vDKbe9fftWmcLb2tqalwZljOUZnTqDQMpso0uWLAFSVk6Ljo4Wm6TrwYMHyrxJctfZz1E9Yp8yZYpaltsePXqkPOdpNRhjeUnnCgQAZS3nhIQEHDx4UIzTdfHiReV5Rnv/7Nu3T3nepk0btSy3qd6cz0wPLMYYy246WSCsra2VG8YLFy4U43TJk/7Z2NhkqBdScHAwTp8+DQAYNmwYChUqJDbJVQkJCcpznrWVMZaXdLJAAMA333wDAAgICMD+/fvFWCMvLy9cvnwZADBp0qQM7WBVb2i3b99eLcsLJUuWVJ7Lg/0YYywv6GyBqFixIiZNmgQAGDFiBOLj48UmaiIiIjBy5Ejl427duqnlaVFdMyKzo65zgo2NjfJcdT3t3PDff/9hzpw5ObbCH2MsnyEd9vr1awJAAGjBggVirGbq1KlK2+XLl4txmho2bEgAyMLCQozyTJUqVZT/y++//04fPnwQm2Srhw8f0nfffUeSJBEAMjMzE5swxgyQThcIIqK1a9cSAJIkiQ4cOCDGRETk7u6u7FAHDx4sxmlKSkpSXte7d28xzjObNm1Svi5Jkqhs2bL0008/0ZEjR+jFixdi80xJTk6m169f08WLF2ndunXUt29fpTBoU2AZY/pL58ZBaNKzZ0/s378fkiRh27Zt6N+/v5KFhoaiTJkyICK4uLjg+vXrGV4vOjAwEFWrVgUA/Pjjj/jtt9/EJnlmwYIFqSYKlP9f1tbWKFmyJKpUqYLSpUur3VhX/XHGxsYiJiYGSUlJCAwMxKtXr/Dq1SslF9sDwJ9//omxY8eqbWOMGSixYuii9+/fU48ePZQj6hEjRtCFCxeIiGjMmDHKke/58+fFl6bL29tbee3SpUvFOM/t3LmTHB0d1Y7uc+oxdOhQCgoKEr8ExpgByxdnEADw4cMHjB07Fhs3bgRSjqZ37Nih9Hb6+eefM73qm6enpzIYbf/+/ejevbvYJM8RESIiIrBjxw6cOnUKnp6eSExMFJtlipOTE6ytreHq6oo6deqgfv36qFixYobPvBhjhiHfFAik7Cw9PT2xceNG5ZITEcHJyQleXl6wsLAQX5KuY8eOoUOHDgCAP/74A+PGjROb6BQiQnJyMsLCwhAbG4vQ0FBER0cry5KqtgMAc3NzmJubo169enj69CmsrKxgYWEBCwsLmJmZASqXrRhjTJSvCoSMiPDll1/i3LlzAIC9e/eiZ8+eYrPPunv3LpycnICUcRc7duwQm2S7I0eO4Ny5c3j37l2WZqxljLGcli8LBFLGLNy+fRudOnXCoUOHxDjDOnXqhCNHjgBZmBwwPZ8+fcKTJ09w9+5dbN68GYcOHQIRwdjYGB8/fszQYD7GGMsL+bZAXL58GT4+Phg0aJCyhoQ2VM8iJElCxYoVMW3aNHTu3FltVHNmeHl54cGDB9iwYQNu3LihTJ+h+q0+duwYT8bHGNNp+bZAZKfdu3ejX79+ysfydfmWLVuiRYsWqFChAho0aABbW1sYGRmhcOHC+PjxIyIiIhASEoIiRYrg2LFjuHr1Kry9vREWFgYIBUFWv359LF68GK1atRIjxhjTKVwgUhw+fBhLly7FhQsXxCjDN3LT+lbWq1cPAwYMQMWKFdGpU6cMvx9jjOUlLhAqiAgnT57E1atX8fvvv2u9ol2lSpXQu3dvdOjQAZUrV4atrS0XBcZYvsMFIg0JCQm4desWHj16hBs3buD48eN49eoVYmNjlXsKdnZ2qFmzJho0aAALCwu4urqiWbNmKFCgAJCJMw/GGNNFXCAyQPwWffjwAQUKFFAKAbgYMMb0EBcIxhhjGunsehCMMcbyFhcIxhhjGnGBYIwxphEXCMYYYxpxgWCMMaYRFwjGGGMacYFgjDGmEY+DYIzliLt37+LWrVsYMGCAGOWq5ORkJCQkIDExUXkkJCTg06dPyvPExETUqlULJiYm4ssNGhcIxli2SU5ORmJiIiIjI/Htt98iNjYWe/fuVdsRa3ouP8SPP378qPbvhw8f8PHjR3z48EHtER8fj/j4eMTFxSmP2NhYtalxMiI6OjrTK1PqMy4QeuzEiRNo27atuJnpEXFnm97Hmv7N6M5Y/lfeEYs7ZHln/OHDB+Vrk3ct2TUNTW7sql69eqX1OjD6iAuEngoMDES1atUQFRWFwoULizHTgupON70dsabn4iOtnbHq0XF8fDw+fPiAuLi4VDtj+XlO0dXdgomJibKueqFChVCoUCEULFhQ+dfMzAzm5uZqz83MzJSHqamp8q/qw8TEBHXq1IG9vb34KQ0aFwg99csvv8DU1BQzZswQo3xBvj4s7mxVP/706ZPyXPVf8SHveOWPP3z4oPyb1mWK+Ph4ZUccGxuL+Ph4JCcni19mttDVP0FjY+NUO2N5RyzvhM3NzdUeZmZmCAwMxIEDBzB69GjUqFEj1c5Y3iGn9a+mh5xpu0Rvdp3FGBouEHqqU6dOGDp0KLp27SpGqSQlJaW54xV3ypr+Vd0Rq/6runNOa2esemQs75RjY2ORlJQkfpnZQld/3Y2MjGBhYaEcDas+L1iwYJo7Y3Nzc7Udr6ajY3EHLP9boECBVDtl1Y9VZyvOjPfv36N9+/a4evUqZsyYgblz54pNWD7BBSKXyTfxxB2vpo/FnbDq848fPyIxMVFtp6y6M163bh2+/PJLWFpaptoZy5ct5J1xYmKi+GVmC13+1ZKPhjVdqtB0dJyVnfHndsTyQ1u6eHRMRHB3d8eoUaPg7u6O4cOHi01YPqDXBYKIUu1sNX2s6bm8I1Z9iEfI8nVj8ZqxuCPWtkdFZunqj9Lc3DzVpQr5qFg8OpavFcs74/SuG4s75IzsiOWPtaWLO2NdNnjwYGzbtg3+/v6oVq2aGDMdl+0FQj4iFXe44iO9HXFGd8YfP35MdXScVo+K7JbN37ZsY2pqCmNjYxAR7O3tU103Fo+OtdkZiztb8bnqxwUKFICRkXbjMXlnnP9dv34dDRs2xJ9//omxY8eKMdNx2VYgLl26hKFDhyIoKEiMsiybvsRsZ5LSo0K+NKHp6FjeIcs7YvkIWdPO2MzMTG0HK+9kM7ojNjU1hZGREcqUKYP58+dj8ODB4pecJt4Zs5xSp04dFCxYEF5eXmLEdFy2FYhp06Zh8eLF4uZsI9/E09SjQrxMoenoWPUhHiGr7mjFf9PaEZvoaI+KBw8eoFq1avDx8UHdunXFmLFc5+7ujpEjR8Lb2xsNGzYUY6bDsq1AREVF4cSJEwgMDFR2wuKOOL0dsqaHaqZtj4qc3Bnrot9//x0//PADEhMTtb60w1h2q1y5MkxNTeHv7y9GTIdlW4FguqFly5YoWbIkPDw8xIixPOPl5QVXV1ds2bIFgwYNEmOmo7hA6JHAwEBUrVoVe/bsQa9evcSYsTzVuHFjmJub49y5c2LEdBRfg9AjcgcBOzs7MWIsz9WtWxcBAQHiZqbDuEDoEWdnZwDA+vXrxYgxxjKNC4QeKVeuHEaNGoVt27bl6IA8xphh4AKhZ16/fg1bW1uYmpqKEWN5SpIk7lmXz/BPS888e/YMlStXFjczlucCAgJQs2ZNcTPTYVwg9EzdunVx5coVREZGihFjeSoxMREFCxYUNzMdxgVCzzRp0gRIOZNgjLGs4AKhZ+QVsR4/fixGjDGWKVwg9MyTJ08AABUqVBAjxvJUVm5Sx8TE4N27d+JmlsO0+2kxnXXkyBEUL14ctWrVEiPG8kxISAgePXqEEiVKiFGaQkNDcfDgQQwaNAhFihRBiRIlYGRkhHbt2uGff/4Rm6fy9u1bvHnzRtzMMoGn2tAzY8aMwZo1axAVFQVLS0sxZizXvXz5ErNnz8b69esxbNgwZSBnWFgYIiIi4OPjg6SkJCQnJ6Ns2bK4dOkSfHx8cOjQISCN6f4lSUKHDh3w008/oXbt2ihUqBACAwPh7e2Nixcv4uDBg8oZh7W1NSpUqIAvv/wSt27dgo+PD3777TeMHDlSfFsm4AKhZ7Zu3YrBgwfj3r17qFGjhhgzPZWQkJDnY18iIiJw584dFCxYEBEREbh69Srmzp2L5ORkZSdvbm6OLVu2YNmyZbhx44b4Fgq5vZubG4YNG4Z69eqhZMmSiImJwb///ovRo0cjKSlJma3Z0tIS0dHRaq9NjyRJeP78OUqXLi1GTAUXCD3j6+uLunXrYteuXejbt68YMz2UmJiIOnXqwNfXFyZZWE5VVUREBJKSkhAfH4+iRYsiOjoaL168gL29PUqVKqXW1sfHB//99x8WLFiA9+/fK9uJCHZ2dujYsSNcXFzg7u4OHx8fSJIEIoK5uTl69uyJWrVqISkpCUlJSYiNjUW1atVQuXJlODg4oEyZMhqn7A8LC8OaNWtw/PhxeHt7AykLeLVq1QojRoyAs7MzHBwcQER49uwZQkND8fDhQzg4OGDnzp1Yv349hg8fDnd3d/GtmQouEHrm7t27cHJywvbt29G/f38xZnro0qVL+OKLL3Dt2jU0aNBAjD9LPvK2tLTE7du3sXjxYuzatUtspjAxMcHYsWNRoUIF3Lt3D+vWrQNSCsKIESPg6uqK169fo0WLFsoCQZIkwd/fH5MmTYKlpSW+++47uLm5QZIktQJARBoLQlqICO/fv4eVlZWy7XOv9/HxgYuLCwDAz8+P79elgwuEnomPj0ehQoUwYMAAbNu2TYyZHoqMjISVlRXWrl2r1XX1cuXKISwsDG3btsWRI0eUSzQuLi549OgRIiIiULx4cTg6OuLx48cIDQ0FUnbEctslS5bA1dUVTZo0SXcHLbdPr01Oi42NReHChQEAT58+Rbly5cQmLAUXCD3Ut29feHh4ICkpSetuhSx/KV26NAYNGoQFCxaIUbrevn2bqmfR3LlzMWTIEOX6/MePH2FmZqbkz549w507d5SPGzZsCFtbW+VjXXfv3j3lrOHTp09aLx1sCHjvoYfkP1aebsNwJCQkaNWls3jx4qhYsSIAYPfu3Xj9+jVmzJihXPuXJAnm5ubKc0mSYG9vj44dOyqP/FQcWOZwgdBDbdq0AVKuTTPDUL16da0X45k2bRoAYPPmzQaxs1e9z5GcnCzG8PLyQpcuXXDmzBkxMjhcIPRQ586dAQA7d+4UI6anSpcuDT8/P3FzphjK1WbVXlhxcXFqGQBs2LABhw4dwqBBgxAbGyvGBoULhJ4qX748nj9/Lm5meqpgwYKIjo5GTEyMGH2WoRQGWfHixZUzpQcPHogxRo4cCSllnMTp06fVsnbt2qXbw0vfcIHQU87Ozrh06ZLGU2imf+rVqwekdHPWliH9rri5uQEpN6xFDRs2xODBg4GUs3C5gHp5eeHEiRMYPny4wRRVLhCM6QH5iDgqKkqMPkve2RnKTg8A7OzsAABv3rzRWBjbt28PSZKwZ88euLu7o0aNGnB1dQURITY21mCW9OUCoafkPwB5EBTTb3KXVE2XTD5HHmT24sULMcr33r9/j23btmH8+PFo3bo1ChcujDp16iiD+zZt2gRjY2N8++23GDFiBEaPHo1p06bhwIEDSsEcNWqU0gHA0tISHh4eat1+9RoxvdStWzcyMjKihIQEMWJ66MmTJwSAJkyYIEafdeXKFQJAACgqKkqM86XIyEiaN28eWVhYKP+3rDzatm1LBw4cMLi/Jx4op6eaNm2Kly9f8sJBBuLNmzewtbXFwIEDsXXrVjH+LLnb54kTJ/D111+Lcb5y4sQJjB8/HvXq1cPAgQNRo0YNFClSBMbGxvj06RMCAwMRGhqKQoUKYezYsQgJCcHgwYOVuaciIiJgY2ODAgUKKLMRvHv3DsWKFRM/lf4TKwbL/8LDwwkADRo0SIyYnvr06RMBIFdXVzHKkObNmxMAWrJkiRjlO4cOHaK7d++Km1O5cOECSZJEQ4cOpeTkZDEmIqLy5csTAJo9e7YYGQS+B6GH5J4sPAmZ4TA2NkabNm1w5coVrbq6tmrVCgAQGBgoRvlOp06dULNmTXFzKosXLwYRoXfv3mnODTVmzBhIkoTZs2fDx8dHjPUeFwg9FBQUBACoU6eOGDE91qhRI0DL9cgdHR0BADdv3hQjvbRt2zYcPXoUEyZMwFdffSXGitGjR8Pc3BwAsHfvXoPq6QUuEPrJ0H6J2f8rX748kHI/gqXt1atXGDp0KIgIP//8c5pnD0jptbRo0SJIkoSFCxfi4sWLYhO9xgVCD9nY2AAAHj58KEZMj8k3UeWlNjMjIiICUOkerc/27t2LpKQkzJgxA8WLFxfjVEaMGIGuXbsCKV1e5enODQEXCD3UtWtXWFpa4q+//hIjpsfkdQ3kS4yZIU/f7eTkJEZ6JSoqChMmTIAkSRg7dmy6Zw8yMzMzTJ8+HZIkISAgADNnzjSYs3QuEIzpierVqwNaFgj55nSVKlXESK8sWLAARITly5ejZMmSYpymhg0bYvfu3ZAkCRs3bsS5c+fEJnqJC4Se6tevH+7evatVn3iWP1lYWAAA/P39xYgBCA4OxqJFiwAAXbp0EePP6t27N9q1awekTI1uCGcRXCD01JIlSwAA+/btEyOmp4yMjODo6Ihr164ZzFxBmbFo0SIQEWbNmgV7e3sxzpDRo0dDkiRs374dJ0+eFGO9wwVCT127dg1QWTxIWyEhIQgPD1c+1uYGKMs9jRs3BrIwr9L79+/FTXohMDAQGzZsgLm5OSZOnJihew+adOzYET179gQArFy5Uu/PIrhA6Cn5MkPVqlXF6LNu3LiBPn36QJIkVKhQATY2Nmjfvj3c3NxgZ2eHjh07ii9hOkKe1TWzXV3ln2lwcLAY6YXDhw8DAGbMmKFMTqgt+Szi+PHjGqcL1ydcILJI01TBGRUSEiJuyjaHDh0CAPz7779q2xMTE7Fw4UJIkoQiRYoos1oCgI+PD/r27YsGDRpgz549sLa2RuvWrVGxYkUcP34cJ06cQGJiIl6/fq32nkx3ODg4AABevnwpRukqWLAgAODp06dilO/Fx8djzZo1ICK0b99ejDOtVatWyjref/75p36fRYhzb7CM27dvHwGgVatW0adPn8RYo8ePH9OPP/5Itra2ykyRffr0od9//51u3rxJISEh4ksyLSwsjIyMjAgAWVtbK9vPnDlD1tbWyueVHzt27KBffvlF+bhZs2a0Z88eSkpKUl4bEBBA06ZNIwD0559/KtuZbjl27BgBoHXr1olRulavXk0AqFOnTmKU7y1YsIAkSaL//e9/ac659OjRI3r48CEFBgbSs2fP0p219cWLF7R//36SJIkA0MuXL8UmeoMLhJbkKZInTZpE3t7eFB8fLzZJxcfHJ9XOWdNj3Lhx4kszZfXq1TRo0CC6evUqrV+/Xtkmv/+sWbPo3bt3SoGTHxYWFuTu7i6+naJhw4YEgPbs2SNGTEdcuHCBoMXkcrNmzSIA1LdvXzHK90xNTQkA3bhxg4iI/Pz8aNWqVbR582Zyc3OjSpUqpfobNDc3pxYtWtCkSZNo/PjxNG7cOOrQoQM5OTmlapvZ73V+wtN9a2nHjh3o378/QkJClCkOPsfZ2Rl+fn6wt7fHhAkTMGLECPj6+iIiIgI+Pj5ISkrC3LlzAQDffPMNChQogLCwMFSoUAFlypRB1apV4ezsDCMjI5iZmeHVq1d4/vw5TExM8MUXX6Bo0aIAABMTE3z69AmSJKFBgwYoV64c9u/fD1NTUxw5ckRt7plr167h+PHjKFmyJAYPHqzMOyO6fv06GjZsCAAICwtDiRIlxCZMB9y+fRt16tTBmDFjMjVQ8ttvv8XOnTuxevVqjB49WozzrXPnzuHLL79E9+7d8d1332H9+vX4559/xGZZ9uDBA2U+K70iVgyWMT/88AMBoLi4ODHS6NWrV8oRx82bN8VYobp4S2YeZcuWpSVLlihHOE5OTlSsWDElHzRoED19+lT8dBm2fv16AkD169cXI6ZDfH19CQCNGTNGjNLl4OBAAOjUqVNilK8tX76cJElSLjMBICsrK5o9ezYtXLiQjhw5QleuXKHIyEj68OEDxcfHU1RUFF25coV27NhBixYtotmzZxMAat68OZ05c4YePnxIly5dUvYBACggIED81HqBzyC0tGrVKowbNw5+fn4Zmlb79evXKFWqFJDSw0ge9arJmzdvcP/+fUiSBCsrK9ja2uLp06c4d+4cPn36BDMzM7x79w6VKlVCtWrVYGZmho0bN8LDwwPff/89+vbti+rVq+PFixe4dOkS7O3t0aRJE/HTZMpXX32F06dP690Rpr6JiopC0aJF8fXXX+PEiRNirJHq72ZwcLByA1YfLF++HFOmTFFuJHt4eKB3795is3Q9f/4c9vb2GD9+PJYvX67WRVYeta6vI9C5QGhp2bJlmDp1Km7evIl69eqJcSpxcXHKSNcrV65keYedm16+fIkyZcoAALy8vJS+9kw3FS5cGMbGxoiMjBQjjfz8/ODs7AxAP2cCXrNmDQDgyy+/1Krbt5+fH2rXro0FCxZg2rRpYqzXuJurlhITEwEAnz59EiONVP/w8tsf4a1bt5TnLi4uahnTPZ06dUJUVJSycNTnyEfB+vqzHT16NEaPHq1VcUDKWRlSCq+h4QKhJXkqA7lQZEZ+KxAPHjwAAHTu3BkmJiZizHRM7dq1gUyMhTA2NgYAFChQQIxYyiUmAJma3E9fcIHQknwdMi4uTow0SkpKUp5nZXBdXpDnv8/IH8jRo0exY8cOcTPLRXXr1gUAXL58WYw0kgsEF3/N5AM6+RKxIeECoSV55GlG1/8tUqQIjIz+/9utzZKQeUmeCrpatWpiBADw9fVFkyZNEB8fjxcvXqB///7w8vISm7FcIi81u2fPHjHSSL7BeunSJR4lr4F8MKjt/E35GRcILclHFapnBp/Ttm1bAMCjR4/ESKfJlyqio6PFCNeuXcOoUaNw9epVFCpUCCNHjgQAHieRh0qWLIkvv/wS9+/fz9DBSNWqVdGnTx8AwPDhw/Hx40exiUHjAsEyTT6DkG9gZYS8bOGcOXMyfGkqr9y9exfz5s1Dly5dlOUoZ8+ejTlz5mDz5s2YPn06SpYsiUaNGsHb2xtIuYnXr18//Pvvv6hcubLwjiw3NW/eHABQsWJFPHv2TIxTWbhwIWrWrInDhw9j48aNYmzQ5CKb0QGxekUcGMEyxt3dnQCkOzWFJvLAmiVLlohRnvv48SMdOHCABg4cqHydn3s0a9aM5syZo3zs6+srvi3LI/PnzycAdPbsWTHS6PDhwwSAWrZsKUYGbdGiRSRJEnl7e4uR3uMziFwmL+Tj4eEhRnnm+++/R+nSpWFmZobu3btj27ZtmDBhAq5evYrw8HDlHsScOXOwfv16rFu3DkeOHEFISAguXryIX375BUuXLgVSejpl5rIbyznyzeqMdsX+8ssvgZTpKT58+CDGOe7evXt4/PgxYmNjxSjLrl+/junTp6Nfv35wc3PDrFmz4OfnJzbTSL5aYCiryKkRKwbLmFOnThEAmjp1qhilS54gz8jISIzyzJo1a2jhwoW0evVqOnv2bKqJB+fOnUt2dnYUGxurtl1VQkICjR49mgDQxIkTxZjlgSdPnhAAZcLGjJBnGY6IiBCjHDd27FiSJIkkSSJjY2Pq2LEj7d69W21WYU1iYmLowIEDtGzZMurVqxdZW1tT0aJFqUGDBlSjRg0qWrSoMs2G6kOSJCpXrhxJkkRffvklbdmyhShlWpwdO3ZQp06dyNnZWXltlSpV0pwNVl9xgdCSPhWI9Pj7+xMA2rt3rxil8vjxYypTpgwBoHPnzokxy2VRUVEEgLZu3SpGaapevToBoJiYGDHKccnJyXThwgX6+++/lfmPJEmi6tWr07Jly+jgwYPKlNz79u2jGTNmULNmzZSioqkIyI9atWrRb7/9RoGBgXTp0iUaO3ZsqjaSJNGECROoRIkSqd7r0qVL9O7dO/FL1ns81YaWLl++jGbNmuGbb77JVL//DRs2YPjw4ShfvnyOLhiUXWbMmIH169crs8Z+zpEjR9CpUyeULVs2QzdHWc6JjY1F4cKF8e+//6Jz585irFGxYsUQERGB+fPno2vXrqhRo4aSRURE4OHDhwCA0qVLK9OvZMTFixfx8OFDvHjxApUqVQIA2Nvbo2nTpmJTxaNHj7Bu3TrlsqxI3nU5ODigR48ecHJygp2dHRwdHWFubo64uDhUqFBBaa/aC4mIkJCQgPv376No0aLw9fVF9+7dlffs1auX8ndqZmZmmDeo8f/fKKaFgIAAAkBff/21GKVr0aJFBIBcXV3FSOc8f/6cTE1NadasWWKUrqFDhxIAOnPmjBixXAaA/P39xc1pmjJlinLUbGRkRL6+vuTv708jR45UO9KWJInGjBlDfn5+9Oeff1LLli3J0dGRfvzxR7X3Cw8Pp6lTp6od5as+HBwc0j07TU5OJj8/P/L09KQRI0ZQmzZtqE2bNjR9+nTav38/BQQEUHJycrZc+rl27RrNnz+fdu3alS3vpw+4QGjpwYMHhJRePJkhTxE8YsQIMdI5W7ZsIQD04MEDMUqX3Btmzpw5YsRyUUJCAgGgyMhIMUpTYmIiXblyhWbMmKEUBNXHsGHDaPjw4WRubq5WLFTb9OrVi4KCgujEiRNUsmRJAkA9evSgS5cu0dOnT+ny5ct0+fJl2rx5Mzk6OpIkSRnq/SYXguwqCOzzuEBoKSkpSVmpKjMGDx5MAGjUqFFipHMaNWqk1Qpj8poEU6ZMESOWj0yePJlsbGyoTZs2tHfvXnr16hVRyo46OjqaVq9eTR07dqTx48fTtWvX6Pnz59S3b99UhcPd3T3NHfr169cJAK1du1aMmA7gbq5aMjIyUlZY8/f3F+M01axZEwAyPBVzXnn8+DG8vb3RoUMHMcowvr2Vvy1btgxv377FqVOn0LNnT2UuLkmSULhwYYwePRqHDh3CihUr0KBBA5QpUwY7d+7EqlWr8N1332Hp0qXw8fHB8OHD0xyFXKxYMQDA27dvxYjpAC4QWSDPTZSZm83yRH1PnjwRI50iz+Aq96XPDGtrawBAeHi4GDE9I0mS2s5fkiR8//33WL9+PSZPnvzZ3x/574Gn99BNXCCyQO7hkZneOvLOU55CWFdduHABtra2qebQT+us4OPHjwgJCUFQUJCyvoCvry+mT58uNmUGIK0zBpF8cKXa24jpDi4QWWBqagoAiI+PF6M0mZubA/mgQKxfvx6DBw9GgQIF8PLlS6xbtw6tWrWCkZERLCws8Ntvv8Hd3R2LFi1Cp06dYG5ujgoVKsDR0RFt2rQBUgrEokWLMjySlxmeZcuWAQBat24tRkwHcIHIAnl++MxMDSCv/ZucnKyzE/YlJibi7du3KFu2LDZu3IgyZcpg1KhRqF69OqZNm4a4uDj8/PPPGDlyJKZPn47o6GhMnToV7u7u8PLygre3N1atWgUA+PHHH3khGpamoKAgmJqawt7eXoyYLhDvWrOM27x5MwGgefPmiVGa7t+/r3QH9PHxEWOd4eDgoHyds2bNopcvXypZxYoVqVu3bhQWFkYfP35Ue53s8uXL1KZNG4qKihIjxhS2trZkbW0tbmY6gs8gskBedjQzR8iq1/Qzc3M7t+3Zswfr1q1DQEAAZs+eDTs7OyUrW7YsDh48iGLFiimX2USurq44deoULC0txYgxAMD79+8RFhYGMzMzMWI6ggtEFsiXlooUKSJG6ZKv0Weme2xua9CgAUaMGKFxFTl5fYjM3HthTOTp6QmorJPCdA8XiCyQV4aT+3JnlDyHzbt378QoX5Cnguabzywrjh8/DqSsYsd0ExeILJB7ImX2BturV68APViWM60ur4x9Tnx8PLZt2wZ7e3vUq1dPjJmO4AKRBdevXwdSZrbMjBs3bgCAMqtlfiMPbmJMW/I65/LMAkw3cYHQ0osXL/DixQsgk2cCRKRcWsqPBSImJgbBwcEoVaqUMuiPscwKCwsDADg5OYkR0yFcILQkTyPRrFkzFCpUSIzTJEmSctR07949MdZ5MTExAMA9T1i24MuUuo0LhJbkswB54FtmNG7cGEgZaZzfyD2YateuLUaMZZizszMAYPv27YiOjhZjpiO4QGhJPpLOzOUlWY8ePQAAy5cvV3pC5RfypGppjX9gLCMsLCwwffp0vHr1CufOnRNjpiO4QGhJPjXW5hS5bdu2ylKLa9asEWOdVqdOHQDAvn37eAZOliVNmjQBAAQHB4sR0xFcIPKAkZGRMknZ0qVLcfv2bbGJThs2bBgA4Pz582LEWIbJlyn590h3cYHQUlbOIACgUaNGqF69OgBg4MCBYqzT2rdvD+TTm+xMd8jdw+Xu4kz3cIHQkjyTq3zTVhv79u0DANy5cwevX78WY50l32D08/MTI8YyTB4L8blFhVje4QKhJRsbGyCLK8NVrlxZeZ7fblYj5VIZY9qSJ6sUF6ViuoP/wvOQqakp2rVrB6gs8ZkfaHtZjTFVcvdWeW4ypnu4QGipbNmyAABvb+8sTT1x69YtcZPOk/+w5R5NjDH9xAUiD/3xxx949eoV7OzsMHjwYDHOFG9vb0ybNg39+/eHra0tSpUqhUGDBmHp0qVYunQpjh49Kr4kQyIjI3Hr1i3s3r0bHh4euHHjBh4+fAgAKF68uNicMaZHJOLrBVp5+/atMkguKSkp09fjb9++jbp164KIcODAAXTr1k1s8lmXLl3ChQsXsGLFCrx9+1bjpR/VxeMfP36M8uXLq+WqQkJCcOvWLXh7e+PGjRs4c+aM2ERBRDh69KjSo4mxzPLz84OzszNGjBiBdevWiTHTAVwgtPTy5Uvl2qk2BWLVqlUYN24c2rZtC09PT4SEhODjx48ICAiAiYkJ1q9fj5cvXyIxMRFJSUlwcnJCjRo1QES4d+8ezp49q0x4Jv8IHRwc0KtXL1SpUgWSJOH8+fPw9/dHeHg4QkJCsGnTJgwZMgT+/v6oVasWVqxYgTdv3uDJkyfw9fXF3bt31d4PAExMTGBvb49BgwYp/8d3796haNGi+Omnn2BiYqK0ZSyzJElCmTJllKnzmW7hAqGl9+/fw9raGiYmJsrSo5nRq1cv7Nu3DwMHDsTp06cRGhqqlmv6schnA6pZlSpV0K9fP7Ru3RrNmjWDJElq7Z4+fQoHBwcAQGBgIO7fv4958+bh2rVrkCQp1edxc3ND+/btUbduXTg6OipnSapnIkSk9jFj2urRowcOHDgAf39/ZVwQ0x1cILT05s0b2NraAikrqxkbG4tN0uXu7o6RI0eKm2FnZ4evvvoKVlZWcHJyQlJSEpKTk3H16lU8efIERISiRYuiTZs2aNKkCVxcXNSKgibjx49HXFwcVq9eDXNzc6UoWFlZwd7eHq1bt0bbtm1Rr149FC9ePN33Yiw7LVy4ED/++CP+/fdfdO7cWYxZHuMCkQU1atRAQEAAfH19Ubhw4Uyv77B69WokJCSgcuXKqFWrVqr7A+JRe1rZ58ivlSQJkyZNwuXLl3H9+nVs374dDx8+xKxZszL1foxll3///Rddu3bFH3/8gXHjxokxy2OZu3DO1PTs2RNIGQk6dOhQMf6sMWPGYOLEiejYsSMcHByUMwFNZwTpZZ+j+prff/8df/31l7KdiwNjLC1cILLgxx9/xOLFi/H1119j9OjRYqyTxALDxYHlJfn3L7OdPFju4J9KFhQsWBA//PADjh8/jj59+oixzpJ7X+Wn0dtMP8mXVfl3UTdxgcgG+e0oXB4Jrc1iR4wxw8EFwgAlJSUBGm58M5bb5Mku5a7YTLdwgTBAUVFRQEo3V8byUqFChYCUbuNM93CBYIzlGfkyZ2xsrBgxHcAFwgAVKVIESJkyg7G8ZGpqCqic1TLdwgXCAFWrVg0A8N9//4kRY7nK3t4eAHDjxg0xYjqAC4QBkiQJNjY2+XIVO33y/v17XL16VelVZogsLCxQp04d3Lt3DzExMWLM8hgXCANla2uLgIAAcTPLpNevX2P79u3w8vISozRdvHgRHTp0QLFixeDq6oohQ4aITQwKD5LTXfyTMVDyH+WnT5/EiGVAaGgopk6dCjs7OwwaNAhNmzbFkiVLxGaprFu3Di1atMCxY8dARCAi7N+/H/fu3RObauTp6YmZM2diypQpfImQ5TxiBgkANW3aVNxsMAIDA+nx48fi5gy5cOEClSxZkgAQABo1ahQBIEmSaODAgWJzxV9//UWSJBEAGjx4MN25c4fq1atHAGjz5s1i81QGDx6svF7+fH5+fmKzfMfW1pZMTU3FzUwHcIEwQC9fviQA1LNnTzHSe0+fPqXOnTuTJEkkSRL98ccfYpN0HT16lIyNjQkAde3ale7fv0/Jycl09uxZMjIyIgC0d+9e8WXk4eGh7NznzZtHycnJRETUp08fApDu1xETE0Pt27dXCkOPHj2oe/fuBIBMTU3Tfa2u8/X1JQA0YMAAMWI6gAuEAbp586ayozIkT548ocqVKxMA6tChg3IU7uzsTPPnz0/3jMLLy4uGDBmi7OR//PFH+vTpk1qbP/74gwDQ5MmT1bafOnVKed3QoUPVsowUiO+++04pDocOHaLk5GTy8fFRtkmSRF988YX4snzh4cOHBIDc3NzEiOkALhAG6OzZswSA1qxZI0Z66/79+9S0aVMCQP/73/8oOTmZjh49Si4uLspOVpIkunLlivhSOn78uLKDL1WqFG3ZskU5A1C1bds2AkCjR49Wtj19+pQKFy5MAGjgwIH08eNHtdcMGzYs3QKxa9cupRBs2bJFLQsMDKSZM2cq+e7du9Xy/ODt27cEgJo3by5GTAfwTWoDFBERARjQVBteXl5wdXXF5cuXMW3aNCxcuBCSJKF9+/a4fv067ty5g0mTJoGIMHv2bLXXhoSEoH379kp29epVDBo0SOMEjUFBQQCAChUqKNsWLlyImJgYVKlSBYsWLVIGhsnKlSsHABp7lAUFBeGbb74BACxZsgSDBg1Sy6tUqYI5c+bAxcUFAHDt2jW1nLGs4gJhgKytrYGUfvj67unTp+jYsSPCw8Px66+/YsGCBanWw3BycsLSpUtRtmxZnDx5EgcOHFDylStXgojQs2dPzJo1K9Wqf6qeP38OqHx///nnH6xevRpIeZ9SpUqptYdKkRZ37u/evUPdunVBRGjYsCHGjBmjlsuICMHBwQCAkiVLijFjWcIFwgAlJycDKrO66quoqChMnDgR4eHhmD17NmbOnKnxyB8pheLXX38FAEybNg2RkZH49OkTVqxYAQD4+eefhVek9uzZMyBlp//s2TP0798fSFlatl27dkLr/1enTh0AwM2bN5GYmAgAiIuLQ7t27RAbG4siRYpgx44dyqR2ojdv3iiFvl69emKs8+Tu1nFxcWLEdIF4zYnpvxMnThAAWrFihRjpjfj4eOrWrRsBoG7dulFSUpLYRKO+ffsSAJo5cyYNGjSIANCYMWPEZhpZWloSAPLy8iI3NzcCQOXLl6fIyEixqRr5HsLZs2cpMjKSevTooWy7evWq2FyN6s1qX19fMc4XuJur7uIzCAMkH6kmJCSIkd6YMmUKDh48iG7dumHz5s0ZHq07ffp0AMDcuXOxdetW2NnZYezYsWKzVO7du6dMmXHmzBl4enoCADZv3qxMjpiW7t27AwD27NmD2rVrY//+/QCALVu2oFGjRkJrdarTdJiZmalljGVVxv5qmF6RC4T8r7756aefsHr1ajRq1AgbNmxA0aJFxSZpql27NoYOHap8vHXrVlSvXl2tjSZ3794FUi4ZzZgxAwCwbds2tGrVSmiZmnwjes2aNQgJCQEAHDt2LNVNaU0KFy6sPM+Pc2slJibi/fv3BtNhIr/hAmGA5CPa169fi5HOiI+Px4ULF7B582Y8fvxYjNM0a9YsLFiwAI6Ojjh69CiKFSsmNvmsJUuW4MyZMzhz5gy++uorMdZIvg/g6+sLIsIvv/yCAQMGiM006tGjB0aNGgVTU1OMHDkSISEhad6zENWrV0+ZEfXUqVNirPMKFCgAExMTcTPTFeI1J6b/zp8/TwBowoQJYpTnEhISaNOmTWRqaqqMTZAkiTp37kyzZ8+mP/74gw4dOkRBQUHiS+m///4jAFSpUiW6c+eOGOeodevWKfcCpk6dqnGcRHqSk5OVR2bNmzdP+dwnT54UY0V0dDT5+/uTl5cXeXl5Kds0SWt7TpDHosTExIgRy2MS8cLEBuf169coVaoU6tWrh5s3b4pxnvH19cXkyZNx7tw5FC5cGDNnzoSFhQX27NmD8+fPAym9jWTNmjVDq1atUKtWLbi4uGDChAk4cuQIDh06hE6dOqm8c857+fIlvv76a7i5uWHJkiVp9pbKCTExMbC0tARSvj9r1qyBhYUFkHJmEx4ejm3btqV5CcrKygoTJ05EsWLF8PHjR2zatAkBAQGwsrKCg4MD5syZk6Pfz+HDh2PDhg149eoVd9XVNWLFYPovLi6OAJC5ubmyLTw8XK1Nbnr58iWNHz9eGa28fPlyta8nOTmZAgMD6fjx47Rr1y6aN28etWjRQjlqls8ykMcTEGp7BpAdduzYker7ofqQs7Qe6bVt06YNnT17lkaMGEH//vsvERHFxsaKX4LWtm7dSgDo4MGDYsTyGJ9BGCgnJyfcvXsXL168QEREBJycnPD7779j5MiRSEpKwpMnT2BhYYHnz5+DiGBiYgInJyflyPRzEhISEBoaijt37iAuLg7R0dEoUqQIatWqBQsLC5QpUwYPHjzAlStXMHr0aCQlJeGbb77B+PHjP9tzB/j/AWIhISEIDg7G9u3b8ebNGzRq1Ajdu3eHk5OT2NwgXL58Gb/++itOnjyptt3NzQ3lypVDkyZNYG9vD2traxARPn36BF9fXzx//lw5ggeAzp07o2vXrjhx4gQ8PDwAAO7u7ujbty++//57PHz4EDdv3oStrS0ePnyY5d5TPj4+cHFxwdixY/Hnn3+KMctDXCAMVLNmzXD58mUEBwejYsWKOHXqFPr164fw8HCxqZp+/frB2dkZNjY2qFKlCgoWLIjChQsjMjISMTExuHLlCu7fv6/sWDKiSpUqWLhwIbp27arVpRn5V1ib1+ob+XshT6dStGhRpYtvWt8f+TXyAEojIyNcv35dKdSNGzfG2bNnYW5uDiLC+fPnMXPmTDx79gwPHz5EgQIF1N4vs968eQNbW1tUqlQJe/bsyZcD/vQVFwgDVaNGDQQEBODx48dwcHAAUhbBefToEZKSkmBtbQ0bGxsYGxuDiBAVFQV/f3/s2rUL9+7dw/3795UdiqpSpUqhRo0acHNzQ506dVCuXDkYGRnB3NwcERERCAsLw61bt+Dv748aNWqgbt26aN68eao5iljeunr1Kpo0aYJChQrhzJkzamd1O3bsQP/+/bFv3z706NFD7XWZFRsbC0tLS6VItW3bFp06dcLw4cP5d0IHcIEwUJUqVcKjR48QEhKS7vxCIvnX5dOnT3j69CliY2MRGxuLokWLwszMDBUrVgTSOVqVEdFn27C85efnB6RcjlR18OBBdO/eHaNHj0b//v1RokQJWFhYoHTp0mrtMmLlypWYOHGi2jZJkrB792707t1bbTvLfVwgDJB8Sm9ubo74+HgxZuyzlixZgv/973+pinzFihWV+0BEhIEDBwIA3r59i6JFiyIgIABEhKJFi8LBwQGdOnXCkSNH1N4DAI4fPw43NzdxM8tlXCAMUGBgIKpWrYqaNWsqI4AZy6yQkBDcunULHz9+xNOnTxEfH4/Dhw/j5s2bSuGwtrZGfHw8Pnz4IL4cUDkjVSVPyc7yHhcIA7RlyxYMGTIEw4YNw/r168WYMa0REUJDQ/Hs2TPMnTsXZ8+eRVxcHCwsLGBtbY2YmBhAw1TzRkZGSE5OxsKFCzWembC8wVNtGCB50FnLli3FiLEskSQJpUuXRqNGjXD48GHExMQgKSkJ0dHRePr0KcLDwxEeHo64uDhERUWhevXqsLS0RJcuXQAAAwYM4OKgQ7hAGKBbt24BAKpWrSpGjGUbSZIgSRKMjIyU5/KjYMGCsLS0xL179xAZGam8pmDBgmrvwfIWFwgDJN93kJe7ZCyvyAWD6SYuEAbm2bNnSEpKgqWlJc97w3TGF198AQDw9/cXoyxLSkrC3bt3ERgYKEbp8vHxwcWLF8XNBoULhIGR1012dnYWI8byjDyt+uHDh8UoU3x8fHDgwAHs27cPixcvxpQpU2BiYgJnZ2dUq1YNPXv2xJ07d9ReEx8fj/j4eMTFxcHd3R1DhgxB1apVUb9+fbRo0QJ79+5Va29IuBeTgdm0aROGDh2Kn3/+GfPmzRNjxvJEREQEihUrhj59+mD37t1inK7AwEDcvn0bEyZMUOaTksm7t5o1a+L+/ftISkqCJEmYNWsWTExM4O3tnaooya8xNjZGUlISihQpgjdv3hjkyG4uEAZGHuC0fv16DBs2TIwZyzOlS5dGoUKF8PDhQ0RFRcHb2xtVqlSBg4MDgoODsW3bNpw5cwbx8fGoVq0a3NzcsGvXLhw/fhxI2bG3a9cOrq6uqFixIogIlpaWcHFxQenSpREaGorZs2crXbslSdI4DuPvv/9GlSpV4OLiAlNTUyQnJ+PmzZsGOUcUFwgDM2nSJKxYsQJ79uxBr169xJixPCMXCA8PD3z99ddwdHSEt7c3mjZtisuXL4OI4OrqikKFCuH06dPKDt7FxQXDhw9H27ZtUb58+XRvehMR9u3bh9DQUMTFxaFWrVrKjp+IULp0aeX1ISEhqFChAgAgMjLys2uL6yMuEAamePHiePfundokfYzpAnnajZo1a8Ld3R1NmjTB33//jcuXL6Nq1ar48ssvlXtnT548wa1bt+Do6IgaNWqkWxS0dfv2bdSpUwf29vZ48uSJGBsELhAGpnDhwoiNjcWLFy+0mlyNsZzy7bffYufOndi8eTMGDx6sbKc8mthRnpJGfl6lShWxid7jXkwGxtraGgBgbm4uRozlKRcXFwBAXFyc2va8KA4A4OjoiDZt2gAAli5dKsYGgc8gDEz79u1x/PhxXL16NUMrtzGWm6pWrQoiyvSYhZxy5coVNG3aFIUKFUJsbKwY6z0+gzAw8pw3mVnxjbHc0qpVKwQFBeH169dilCfkM+28OovJa1wgDEzz5s0BAKdOnRIjAEBQUBC8vLzEzYzliujoaJiamurMKP/Q0FDAgCe25AJhYIoWLQqojKhWdeXKFcyePVtpkxVRUVFqk7Ax9jlPnz7Fzp07MXToUDHKMxYWFoDKvbu0/PvvvzAyMsKWLVvEKF/jAmGgkpOTERwcjEePHuHs2bM4deoUbt68icWLF6NGjRpi8zT5+/vj+PHjuH//vnJzcdmyZbCysoK1tTXmzJkjvoTlYzt37sTOnTthZGSU7d2kPT09AQAdO3YUozxja2sLAHBwcEBkZCQCAgLg6empPFatWoV+/fqhW7duICI4OjqKb5G/ETM4jo6OBID69etHkiRRz549KTExUWymeP78OXl5edG7d+/o2bNndO3aNZo/fz7VrVuXJElSe4wYMYIkSSIAymP//v3iW7J85LvvvqNx48aRr6+v8nOWf7bbtm0Tm2eam5ub8r6VKlUS4zwTHBxMBw8eJDc3N7Kyskr1u676vbCxsaFNmzaJb5HvcS8mA9SiRQtcuHABCxYswI8//ojt27ejQ4cOuHXrFk6dOoU7d+7AxsYGZmZmuHz5Mu7fvy++BZDSP93a2hqtWrXCixcv4O3trWQbN27E6tWrleUnO3fujH/++Uft9Uz3qY4FmD17NmbPnq2Wt2nTBsWLF8euXbvUtmfUhQsX0KJFC+XjY8eOoV27dmptcpO3tzfOnz+PNWvWKIPjVHeRJUqUQPPmzZWb1uXKlUOdOnXQvXt3FC5cWGmnN8SKwbLu7t274iadYmpqSgDI39+fAKQ6GhIf1tbW5ObmRvXq1SMrKytq2LAh7d69my5fvkzx8fGUnJxMHz58oH379tH8+fPp5MmTRET0+vVrmjhxovI+EydOFL8Ulks8PDzETRkyadKkVL8PSDn7VP141apV1LRpUzp79qzy2rNnz6p9rOrgwYPUunVr5Xeud+/etHbtWrFZrnj69CkdOXKESpYsqfwdNGrUiL755hvq1KmT2v+zePHiFBERQcnJycpDn3GByGYLFy4kSZK0/oPMaXfv3iUAVKtWLSIiOnbsGDVr1oxcXFxo1KhR5OnpSX5+fnT+/Hl69uwZRUdHq/0xZPaPIjk5mVavXq38gX348EFswnLBqFGj0txZp+X9+/fKz613797k6upKq1ator///ptCQ0Np48aNyg5U3tFbW1sTEdHWrVuVnW1oaChRyo74woUL1KlTp1QHI/JBRV44fvw4ffPNNzRnzhw6deoUvXr1it69e0cdOnRQvr5Dhw4p/9fZs2eLb6G3uEBkM3t7ewJAN27cECOdcP78eQJAffr0UbZps+PPjJiYGOUP7ciRI2LMcsGhQ4eoTZs24uZ0+fr6Kj83f39/jb8fSUlJNHfuXLWdvSRJ5ODgoHz81VdfUYkSJdTOUl1cXGjBggUUFBREt27dEt8214n/ty5duhAAqlmzJt2+fZuIiJ48eaL8n27evKnWXl9xgchG9+/fV36BIiIixDjDbt++TV26dKEJEybQ6tWr1YrN/v37afLkycoZyr///ksbNmygRYsW0caNG2nRokV07949OnPmDDk7O5MkSbR69Wry9PSkLVu20Nq1awkALViwQOUz5qzY2FguEHksKSmJjI2NycvLS4zS9OjRI+Xn5u3tLcZq4uLiaM2aNWqFwsnJiapXr662bfTo0bRr1y6Ki4sT30JnrFu3jgBQ27ZtKSgoSC2bNWsWAaDffvtNbbu+4gKRjfbv308AaMCAAWKUIXfv3qUKFSqonX7LR112dnbUqFEjJZMkiQYPHqzkmh7ie0iSRJMnTyYAtG7dOvHT5xj5shYAevLkiRizXNKnTx/69ddfxc1p8vb2Vn5uL1++FGONIiIi6M6dO/TPP//Qixcv6NmzZ7R69Wq6ffs2xcTEpDpS1zVnz55V/nZCQkLEmG7cuEEAqH79+mKkl3gcRDZ6+fIlkNLTQRvu7u54/PgxiAh9+/bF4sWLQUSwsrJCaGgovL29UaBAASxZsgREhC1btoCIsHLlSgwfPhzDhw/Hd999h5TCj2nTpuHgwYNo1aoVChUqBCLC77//Ln7aHCePRgVgkHPq6wozMzPs379f3JytrKys4OTkhC5duqB06dIoW7YsRo8eDWdnZ1hYWOj0lBWvX79Gjx49lL+T8uXLi03g5OQEALhx44ZhzM0kVgymvUGDBhEAmjt3rhh91sePH5XeRZs3b1aOtOR7Ax4eHuTh4aFs9/DwoIULFyo9plTvI7x8+VLtnoL83NPTkwBQy5YtVT5zznN3dycAVLZsWTFiuejXX38lABQbGytGGmlzBpGfLVy4kABQt27dxEhNzZo1CQA9ePBAjPQOn0FkowIFCgAAEhMTxeizvL29kZCQAFNTU3Ts2FE50pIkCZIkoXfv3ujdu7eyvXfv3pg2bRpq1qyp1k6SJNjZ2SnPVbO2bdsiOTkZZ86cUfnMzFBYWVkBAO7cuSNGGqmuF/Ls2TO1TN9cv34dP/74IwDgt99+E2M1bdu2BQBcvnxZjPQOF4hscu3aNWUCvISEBDH+LHnagoSEBJw9e1aMs41q4WCGxc7ODgDSHPgoUp1/6OPHj2qZvpkyZQqICDNnzkS1atXEWE2TJk2AlIM6fccFIhvs3LkTjRs3hpmZGQAgKSlJbPJZ5cqVw88//wykjFjVJ/JKXM+fP9c4SSDLHfIO/9GjR2KkkeqiUu/fv1fL9MnKlStx8eJFlC9fPkNzh7Vt2xYODg5Yt24dDh48KMZ6hQtENhgzZgwWL14MNzc3QMsCAQDDhg0DUibAi46OFuN8S3UCM19fX7WM5R5jY2MAwNu3b8VII2NjY5QtWxYA8OnTJzHWC56enpg0aRIA4PDhwxk6u7a0tMTq1asBAD169MDTp0/FJnqDC0Q26N27N1q1aqUUhuTkZLFJhpQpU0Z5risramWH0qVLK6ftISEhYsxySUREBADAxMREjNLUsGFDAMDJkyfFKN+LiYnBuHHjQET43//+p/RQyoh27dph1KhRICJs3bpVjPUGF4hs0KhRI4SFhUGe1Ev+l/2/4OBg5br3F198IcYsl8i/l5m5n1ChQgUAQFhYmBjlez/88AMePnyIRo0aYfr06WL8WcOHDwcArScqzA+4QGSD5s2bw8jISLlOW6hQIbFJhqgusJMdi/boinfv3inPP7fwCss5cr/9ggULilGaKlWqBKSMEdAn27Ztw9q1awEAP/30k1a/l/Xq1YOlpSUCAgIQExMjxnqBC0Q2qFKlCtq2bYsPHz4AmfwDVCUPtEPKdU59IXevhFAsWO6SL4Fm5n6CfLDj5+cnRvnalClTAABr165F586dxTjDunbtCujZJWFVXCCy0bVr1wCVLquZdfXqVQCAq6urzqzJmx0cHR1RvXp1IGVZU5Y35DOIzNwjkzsYREVFqR3A5Hdr167FggULMHLkSDHKlC+//BJIucGtj7hAZCNtey/J5MFIPXv2FKN8z8XFBdDjI638QO4Zl5npTuR7EAAQEBCgluVnPXr00Oq+g6hly5YAoPRq0jdcILKR3FNH2xt6O3fuBFLGRDCW3bTpRFGqVCnluampqVrGoKwiFxYWppdzM3GByEbyvQdtBhW9fPlSGcDUoEEDMc73bt68CQAaJ0BjuUO+n6DaGSIjjIz+fzfx5s0bMdIbYWFhuHTpEk6ePKnx//n+/Xtcu3YN+/btw969e5W/8RMnTiht9LGAcoHIRsWLFwcAvHjxQow+6/r160DKDW993onKo81Z7pNHRmd2rjD5jFYeR6EvEhMTcevWLUybNg2lSpVC8+bN4ebmhpIlS8LW1hY2NjawsrJC4cKFUaxYMTRu3Bi9e/dGnz59UKxYMfz6668YMGAAAODvv//O1PiS/IILRDaqUaMGAODo0aNi9FnyUZ3qYLn8pl69eujfvz88PDzg7u6OsWPHomfPnujcubNSNE+ePIk5c+bAyMgIZcuWRefOnTFnzhzMmTMH06dPR7NmzWBkZIShQ4dm6mYq+zx5lHBmC4S+Klq0KFxcXLB48WL06tUL8+bNw7hx4+Ds7Iw3b94gPDwckZGRiI2NBRGhYcOGWLhwIfr06QMiwuzZs0FEmDNnDr799lvx7fWDOL0r096hQ4eU6ZHj4+PFOF3Dhg0jADRnzhwxyjdGjBhBUFmgSP5eaPswlFW7csvu3bsJAHXo0EGM0lW+fHkCQBs2bBCjfO3vv/+mffv20b1791JNjf/8+XN69uwZPXnyhB4/fpxq+vyTJ0/S+vXraceOHcK76hc+g8hGqoPbMnudV+7iKk9slx+tXbsWL1++xKVLl3DgwAFcuXIF169fx6ZNm5Q2NWrUwNq1a/HHH38o25o1a4ZVq1bBw8MDly9fxty5cwG+HJXt5Eug9+7dEyOD9O2336JHjx6oUaNGqqnxy5Qpg7Jly8Le3h4ODg6pps//6quvMGzYMHzzzTfCu+oZsWIw7b148UI5+j1w4IAYp+nt27fK6y5duiTG+Z7q92X58uXKdnmJVqgsshQbG6ucfYSHh6u8C8sqLy8vAkDFixcXo3T17NmTANCPP/4oRkzP8RlENipdurQyY2ZmziDu3r2rPK9Tp45apg9Kly6tLLKiesTVvXt3ZXGWW7duASk9bRYtWoSjR49qNf0BS5s8M+vbt28zNaK9du3aAAAPD48sj/XJb/z8/PRuFHlmcIHQAeHh4UDKgi4WFhZinO9t2rQJJ06cwNKlS2Fra6uWyVMVHDhwQLkp/cMPP6B9+/Zq7VjWyd1VM6tLly5AyjoS+r6ynKqQkBDUrl0btWvXRlBQkBgbBO1+Y1i2khcdkXeW+sTPzw/Dhg2DtbW1Mv9NWgxp55MXbG1tla6Ymfleq04+qe08Y/mRg4MDvvjiCxARxo8fL8YGgQuEDvjnn38AlXld9MmhQ4dARFi/fr0YAcKNfX1aJEkXFShQQJk6IzMT9smTUMLACgQATJ06FQDw6tUrMTIIXCCyUWJionKNVu4x8jmPHj1SdoyfWws3P/rrr78AAK1atRIjQLhvo2kEK8te8rrUmRnMqTo1h3w51FA0btwYSFkJMTPfM33BBSIb3blzR3me0QFvqhOgVa5cWS3L7w4dOoTQ0FAMGDAAxYoVE2NFs2bNAADLly8XI5bNbGxsAJWZXTNCdbp2fV33IC0lSpRQLsv5+PiIsd7jApGNVCfpy2iB8Pb2BlKWMFRdJF4fyJMPdu/eXYwAlZ5Ls2fPBlKmTD59+rTQimUnuWdYZnoxqa7TnJE1m/VN//79AZXp/A0JF4hspHp0ldFBXvJOtE+fPmKUr926dQseHh6oWLEi2rRpI8YAgF9++QVhYWFo2bIlBg0aBACYOXOm2IxlI3k6mMxcKipQoIDyXB/nG/qc1q1bAwDOnTsnRnqPC0Q2khdUKVSoUIaXDJXnxbl48aIY5Wvy2I5hw4YpUyKrunPnDo4cOaJ0H5RvBl69elWruaxYxsgT7509e1aM0lSyZEnl0tTz58/FWO/JiyZdunQJUVFRYqzXuEBko4cPHwIpK8JlVP369QEAGzduzFTXQ10nX25La2U8+Xsl77Bq1aqFGTNmAAA6deqkV4vT6JJ69eoBAM6fP5+paenl3kuGeAahOnjV0AbNcYHIRvLRcIkSJcQoTapzEj148EAty8/ka93h4eE4ceIEjh07hvv37yv5f//9BwCwt7dHeHg4/P390aBBA/Tu3RtEBA8PD6Utyz6VKlVSejKdPHlSjNMkH/QYYk8eExMTpbCGhISIsV7jApGN5O6q4mjh9JQpUwbNmzcHUk5h9YW8dsD//vc/tGvXDh07dkSNGjVQqlQpDBkyBOvXr0exYsVQunRpFC9eHLVq1ULXrl2xZ88ewECPVHPLhAkTAJVOAhkh/47KgzoNTd26dQEAwcHBYqTXuEDoAHkN6o0bN4pRvtWjRw8MGDAAvXr1wujRozF8+HAQEV6/fo0tW7YgMTER4eHhCA0NBRGhR48emDNnDmbPng1vb2/8/PPP4luybCKvD37lyhUxSpM8y/CePXvw+vVrMdZ7Tk5OAIBt27aJkX4TZ+9j2nN1dSUANGHCBDFK1/Xr15VZTa9duybG+ZY8h77qIygoiObMmUMAaPjw4fTw4UP6+PGjMtc+y3lv3rxRft8SExPFWKOkpCTlNU+fPhVjvXf//n3l/x8QECDGeovPIHSAPMsmhFGr+Z08h77qo3LlynB2dgYA1KxZE5UqVYKpqalB9q/PK6qDFhMSEtSytBgZGSkD5gxxxHvVqlWVeze+vr5irLe4QOgA1QF26Y041hdFihQBUqadZrnPyMhImYDP1NRUjNMkF/bMTGWvT+Qu6Ya0FC4XiGwk7/gyM0oVgNoU35mZRC2/krv27t+/X4xYLilatCjMzc3VBsF9jnyjNic6UwQEBOTaAYM2a3I/evRI+foy0409v+MCkY26desGAPj333/FKF1yjx8I897oqyJFiqBt27YICAhQm7+K5Z6KFSsqc2BllLwuxN69e7P1QObAgQOoWbMmnJ2d4eTkhHLlyqFr165YtGiRMtOxKtW/F6T0xpo2bRoqVKgAKysrlChRAkOGDMHRo0fVuqVeu3YNP/30E8zMzGBkZAQbGxscP34ct2/fxrVr1xAZGak2o/CbN2+wfPly9OrVS5knrX///nBwcFDa6D3xpgTTnuoSmmFhYWKcJvl1lpaWYqS31q1bRwBo+/btYsRyQVxcHMXFxYmbP8vOzo4A0IULF8RITUJCAt2/f5+2b99OQ4YModWrV9PJkyfp0aNHREQUFBREq1atom+++UZZYlZ8SJJEkiTRqFGjKCIigv777z9q2bIl9ezZk3777Tc6evQozZkzR+31xsbGqV5foEAB5Xlan0P1UalSJbWP5baOjo708OFD8b+q17hAZKOzZ88qv0x+fn5inKY//viDAFCnTp3ESG8dP36cANAvv/wiRkyHjRw5kgDQihUrlG0xMTF05coVunTpEm3fvp3atm1LBQsWVNvBqu5wxR22jY0NjR49mvz9/SkhIYGCg4Ppxo0btHPnTrK2tiYA5OLiQi4uLgSAWrRoofZ+xsbGtH79egoLC6Pk5GSKjo6mv//+m8aMGUPm5ubK36S1tTX9+uuvFBoaSsnJyfTDDz8QALK1tSVLS0syMjJS2sqPIkWK0LJly+jo0aMZ7vGlT7hAZKMHDx4ov1inTp0S4zTNmDGDANDgwYPFSG8dO3aMANDPP/8sRkyHubu7Kzv8Xr160dWrV6ljx44aj7gbNWpEixYtohMnTtDBgweV4gKAKlWqRIsWLSJPT096//59mt2cg4KCqFOnTsrrFi9eTMnJyRQSEkIeHh505swZev/+vfgyIpVu1s+fP6fk5GRKSEhIlX/48EGtG7a/vz8FBgZSYGAg3b59O82vy1BwgchGjx49Un6RT5w4IcZp6tu3LwGg5cuXi5HeOnz4MAGg6dOnixHTcUuWLFF+z+WC4OjoSN26daPFixfT8ePH6d27d6l2rqo7YjFLz549ewgANW/eXIxYDuOb1DpAXtIxMz1K8jt5vIe8Ah/LP6ZOnYozZ86gUqVKaNWqFaZNm4YdO3Zg//79+OGHH+Dm5oZixYqlGtsijonJqF69esHOzg4XLlwwyFHceYkLhA6QZ9WUu8kaArkwcIHIn1q1aoWgoCCcPn0aCxYsQP369TO1088seQU8bbqoMu1xgdAB+jR6OqPkwpCd3SVZ7tLmbCCrDPFvJS9xgdABlpaWgIHtLCtUqABkcuEaxlju4gKhA6pVqwakrLJmKEqVKgUAuHfvnhgxxnQEF4hspLocYUaXHAWgjGjVpwWDPke+VGBI89ow7X311VeAyqJcLHdwgchGjx8/Vp5nZsoMeeI0Q1qMRJ4CoWLFimLEWCry0rSvXr0SI5aDuEBkI29vbwBA8eLFUbVqVTFOU/ny5YGUo6O4uDgxzjEjR47Ef//9h8uXL+Pw4cNwd3fH3r17cfHiRaXXSE6R16T+4osvxIixVBwdHQE+g8h1EnG3gGzToEED3LhxA0OHDsWGDRvEOF0uLi7w8fHB9evXldlOkTJff1RUFIoXL463b98iMjIScXFxsLKygrm5OYoUKQIzMzO195Jf9+bNG9y6dQuXLl3Cmzdv8O7dOzx69AhhYWEICwsDEaXZA8XOzg5dunRB2bJlUahQIUycOFFskiWtW7fGmTNnsHv3bvTp00eMGVNz7NgxdOjQAe3atcOxY8fEmOUQLhDZJCQkROmZs2nTJgwZMkRskq6ZM2di3rx5GDduHLp27YqjR4/izJkzuH37ttg0lebNmytF5cWLF7h7967azd+0fsRGRkYwNzfHt99+i9q1ayMsLAxxcXEIDg5W1h6WC0h4eDgCAgIwbtw4bNy4EbVr1xbeLeOCg4OV2TEfPnyISpUqiU0YUxMbG4vChQsDAOLj42Fubi42YTmAC0Q22bJli1IUtPkFvnLlCpo2bQqk7JRVfyzFixfHx48fYWZmBnt7e7i6uiI0NBTnzp1Ld+0JW1tbNGrUCF27dkXZsmVhYWGB6tWrw9/fH40bN0bLli1hYWEBT0/PVJ/z/fv38PX1RXx8PJydnVG2bFk4OzvDz88Pv/zyC+bMmaP2uTJj165d+Oabb1CzZk3cvXtXjBnTqF+/fti9ezcOHz6Mjh07ijHLCeLcG0w7/fr1IwDUtGlTMcqwyZMnEwAaNmwYbd26VW295rQe0dHRdPv2bdq3bx/t27ePjh8/Tg8ePFBmrNQ0542Hhwd5eHhQw4YNycHBQYw1evz4sTL/zv79+8U4UxYuXEgAqH///mLEWJqWLl1KAGjlypVixHII36TOJl5eXgCgnAVoY+nSpYiLi4O7uzsGDhyotl5zWo/ChQvD2dkZPXr0QI8ePeDm5gZHR0eUKlUqzVGuvXv3Ru/evREVFZXh5SNVl0U1MTFRy0JCQvDs2TO1bemRL5vVqlVLjBhLU8mSJQGVHnAs53GByGaZWeNXJEkSChYsqHGnnhPi4+MRHx8vbtaoYcOGyvPhw4dj+/btmDx5MooVK4aKFSuifPnysLKywv/+9z+cPn0aPj4+OH36NA4fPoylS5di0KBBaNy4MUaPHo1Tp04BKTfmGcsoueu4v7+/GLEcwvcgsoncg6l79+75Zq1lOzs7vHr1Ks2b2KK//voLY8eOBTTcJ1GlqcBpanv16lU0atRI3MyYRn5+fnB2dlbuo7Gcx2cQ2aR///5Ayvq6L168EGOdJE8zntE5oL7//nusWLECRYoUARHBwsICixcvxrlz53Dx4kWsXbsWjRo1Av3/OiMgIjRp0gTDhw/HzJkzsXXrVvTr1095P77ExDLjyZMnAJ955io+g8gmr1+/VuYXOnDgALp16yY20TnlypXD8+fPERYWhhIlSohxmmJiYhAZGYnSpUunOlsgInz69AkxMTGwsLBQu18hSRJOnz6tTJsgt2EsI+bPn48ZM2agf//+2L59uxizHMBnENmkZMmSqF69OpBy6SQ/kEdwh4eHi1G6ChcujDJlyqQqDkgpAiYmJrC2tk51gx0A2rRpg4YNG2Lq1KlcHFiG3bhxAzNnzgSATB3MsKzhApGN5GkjfH19xUgnyYuv5PaiPVevXsXixYvFzYylaceOHcp9rGLFiokxyyFcILKRvK7DmDFjxEgnySNTY2JixChHpdX9ljFN3r59ixUrViij742NjcUmLIdwgchGs2bNQlhYGLp06SJGOknuVx4RESFGjOmMf/75B1CZ0dXW1lZowXIKF4hsZGlpma+ujzo7OwMAnj59KkaM6YwTJ04AKpeW8tPfWH7HBcKAySvZ8bKfTFfFxsZi3759aNSokbJuinxplOU8LhAGrHjx4gCQqWkyGMtN8rQsDRs2VLqRR0dHC61YTuECYcDkMQpybybGdI08x1mLFi2Um9T5ZSCqPuACYcDkm9Te3t74+PGjGDOW5x49egSkjNmRb1LndrdsQ8YFwoCp3uzL6KR9jOUm1QOXunXrAgCcnJxUWrCcxAXCgKnOPCvPy8SYLpGX042JiUGpUqWQnJyMli1bis1YDuECYcBMTEyUIsGXmJguKliwIKAymJMHWOYuLhAM4D88pqPkG9M8VidvcIEwcAUKFAC4QDDGNOACwRjTWUWLFgWEJW9Z7uECwRjTWaVLlwZSVpNjuY8LhAFLTk5GXFwcoHKpiTFdIt+DOH36tBixXMAFwoBFRkYqz+WpyhnTJfL8S1FRURrXNWc5iwuEAXv79i0AwMbGhidAYzrJ2tpaec4FIvdxgTBgycnJAMBLfzKdJheJhw8fihHLYVwgGGM6zcXFBQDw8uVLMWI5jAsEY0ynffr0CeBJ+vIEFwjGmE6Tl8SVb1iz3MMFgjGm0+QxEFZWVmLEchgXCMaYziIipTOF/C/LPVwgGGM6S77/AL4HkSe4QBgwuV85H5kxXaVaFFSLBcsdXCAM2Js3bwAADg4OYsSYTlAtEPK0MCz3cIEwYMHBwQCAWrVqiRFjOsHCwkI5gHnx4oUYsxzGBcKAPX/+HABQpUoVMWJMZ5QsWRIA8O7dOzFiOYwLhAHz9fUFAFSvXl2MGNMZ9erVAwAEBgaKEcthXCAM2OPHjwGVIzTGdJF8hrtr1y4xYjlMIp4i0SAlJibC1NQUABAeHq42ayZjuiQoKAiOjo4AgCtXrqBJkyZiE5ZD+AzCQIWHhyvPeYQq02Wq98jOnj2rlrGcxQXCQD158gRIub4rSZIYM6ZT+vXrBwDYuXOnGLEcxAXCQL1+/RoAULFiRTFiTOe0bt0aAHDv3j0EBASIMcshXCAMlHyJqVq1amLEmM6R70FAZSVElvO4QDDGdJ7qiGqekyn3cIFgjOk81c6W3PEy93CBMFDyjenY2FgxYkznJCQkKM9LlSqllrGcwwXCQNnb2wMpfcwZ03W3b99WnvPI/9zDBcJAmZubA8J4CMZ01bNnz5TnPD197uECYaDk0/QbN26IEWM6JyYmBgBgaWkJIyPebeUW/k4bKHmajYSEBMTHx4sxYzqFF7fKG1wgDJTqHxqv1MV0nVwguAdT7uICYaDs7OyU57/99ptaxpiusbGxAVJWleOed7mHC4SBMjY2xuHDhwEAp0+fFmPGdEqjRo2U53fv3lXLWM7hAmHAChUqBACIiIgQI8Z0Svny5ZXnISEhahnLOVwgDJjcxVX1chNjukh13fRr166pZSzncIEwYEeOHAEAtGrVSowY0ymFCxdG8+bNAQAnTpwQY5ZDuEAYqKioKGzduhUAsG7dOjFmTOeoTvktT1fPchYXCAP17t075fnAgQPVMsZ0keqyuJGRkWoZyxlcIAxUhQoVMHv2bEyePBmLFy8WY8YYg0Q88sSgEREvOcryhXbt2sHT0xMA8Ndff+G7775T5hRjOYMLBGNM50VHR6NIkSLKx5Ik4ZdffsHs2bPV2rHsZdAFwtPTky+vMJZPBAUF4fnz50DKyOrq1avDxMREbKbzateujeXLl4ubdZJBF4gyZcrg5cuX4mbGGMtRO3fuRL9+/cTNOsegC8TJkyexZMkScTNjjOWY2rVrY+nSpeJmnWTQBQI8OyTLgl27dsHW1lbpn89YRuWXjiEGXyAY00ZgYCCqVauGmjVrws/PT4wZ0ws8DoIxLbx//x5EpKzMx5g+4gLBmBbkkbxFixYVI8b0BhcIxrRQsmRJAMDFixfFiDG9wQWCMS0kJSUBKWt6M6avuEAwpoX4+HiACwTTc1wgGNPCixcvAAD169cXI8b0BhcIxrQgT5deokQJMWJMb3CBYEwL8nKtZmZmYsSY3uACwZgW4uLiAAAFChQQI8b0BhcIxrQgL3mZH2cTZSyjuEAwpoWnT58CAMqVKydGjOkNLhCMacHI6P//dKKjo8WIMb3BBYIxLVSsWBEA8ODBAzFiTG9wgWBMC8nJyYDKiGrG9BEXCMa0YGdnBwDw9/cXI8b0BhcIxrRQtWpVAMCTJ0/w+PFjMWZML3CBYEwLderUUZ4HBASoZYzpCy4QjGmhSpUqyhiICxcuiDFjeoELBGNaMDIywoQJE4CUtakZ00dcIBjT0hdffAGkDJp7//69GDOW73GBYExLTZo0UZ4fPHhQLWNMH3CBYExLJUqUUAbM+fn5iTFj+R4XCMayoGHDhgCAhw8fihFj+R4XCMayQB5RLf/LmD7hAsFYFsTGxgIAjI2NxYixfI8LBGNZ4OnpCQCoUaOGGDGW73GBYExLwcHBymR9XCCYPuICwZiW7ty5ozx3dnZWyxjTB1wgGNOSas+latWqqWWM6QMuEIxp6dmzZwAAR0dHmJmZiTFj+R4XCMa09OTJE4DvPzA9xgWCMS01atQISFl2NDAwUIwZy/e4QDCmpVatWgEp60FUq1YNK1euFJswlq9xgWBMS02aNMHWrVtRvHhxEBEmTZqEb7/9VmzGWL4lERGJGxkzVG/fvhU3fRYRwcfHB4cPH8ahQ4fg4+MjNslRxYsXFzcxli24QDCWYu3atRgzZoy4OcPkPyVJksQoR61YsQLjx48XNzOWZVwgGEtRoEABZWR0fiJJEhISElCgQAExYixLuEAwlsLY2BjJycmoU6cOKleuLMY65/nz57h69SoAIDExkQsEy3ZcIBhLoVogcvs+gjZcXV25QLAcxb2YGNNAkiSdfzCW07hAMMYY04gLBGOMMY24QDDGGNOICwRjjDGNuEAwxhjTiAsEY4wxjbhAMMYY04gLBGOMMY24QDDGGNOICwRjjDGNuEAwxhjTiAsEY4wxjbhAMMYY04gLBGOMMY24QDDGGNOICwRjjDGNuEAwxhjTiAsEY4wxjbhAMMYY04gLBGOMMY24QDDGGNOICwRjjDGNuEAwxhjTiAsEY4wxjbhAMMYY04gLBGOMMY24QDDGGNOICwRjjDGNuEAwxhjTiAsEY4wxjbhAMMYY04gLBGOMMY24QDDGGNOICwRjjDGNuEAwxhjTiAsEY4wxjbhAMMYY04gLBGOMMY24QDDGGNNIIiISNzJmiIyNjZGcnIxatWpBkiQx1jlEhLt37wIAEhMTUaBAAbEJY1nCBYKxFHKByI+4QLCcwAWCsRS7du3C4MGDxc3ZKjk5GZ8+fYKRkVG27dDd3d0xaNAgcTNjWcYFgjEVOf3ncOHCBUyYMAG3b99GcHAwKlSoIDbJtPxwOYzlT3yTmjEVkiTl6MPV1RUfP37M1s/FWE7hAsFYLjIxMcHr168BAFZWVmLMmE7hAsFYLnr16hUiIiJgY2MDa2trMWZMp3CBYCwXvX37FgBQqlQpMWJM53CBYCwXvXv3DgBQvHhxMWJM53CBYCwXPXnyBABQs2ZNMWJM53CBYCwXvXjxAuBLTCyf4ALBWC66du0aAKBWrVpixJjO4QLBWC66evUqAKB69epixJjO4QLBWC6Jjo7Gq1evAADm5uZizJjO4QLBWC4JDAwEAJiamqJkyZJizJjO4QLBWC558OABAMDV1RUFCxYUY8Z0DhcIxnLJy5cvAQC1a9cWI8Z0EhcIxnLJo0ePAABlypQRI8Z0EhcIxnLJhw8fAACFCxcWI8Z0EhcIxhhjGnGBYCyXlChRAlCZj4kxXccFgrFcIhcIeUZXxnQdFwjGGGMacYFgLJfIg+MeP34sRozpJC4QjOUSOzs7AMDt27dx/vx5MWZM50hEROJGxljOcHZ2hp+fHyRJQnJyshgzplP4DIKxXHTgwAE4OjqCiLBz504xZkyncIFgLBdVrlwZXbt2BQB4eXmJMWM6hQsEY7lMvqrLl5iYruMCwVge8fPzw7Rp0zBo0CBUqVIF8+fPR1hYmNgsS2JjYxEbGytuZixD+CY1Y7kkMDAQx44dw7x58zSOppYkCVZWVjh8+DCaNm2qvObcuXMICgrCvn37EBMTgxYtWmD69OmoX7+++BaKe/fuYd26dVi1apXyMa9ixzKLCwRjWZSYmAikXDIyMzMTY+zduxfr1q3DmTNnAJVLTF26dEHdunVRqVIlJCcnY/LkyXj37h0kScLevXvh5+eHX3/9Ve01MkmScOXKFTRu3Fht+8WLF7Fr1y6sXbtW7TXnz59H8+bN1doy9jlcIBjT4NmzZ1ixYgWOHDmC+Ph4/Pzzz3B2dkaTJk0QGBiIy5cv4/379zh48CAuXbqkvK5OnTooVaoUmjVrhrCwMFy9ehXXrl1TdtZDhw5Fq1at4OrqCgcHB0iSpLw2MDAQHTt2RFBQECRJUl5jYWGB3r17o0GDBrCwsMCUKVPw9u1bSJKEo0ePol27djh27Bj27t2LrVu3qhWG5cuXo0+fPsoYDMYyhRhjajw9PalYsWI0efJk2rVrF02fPp0kSSJJksjFxUV5LkkSAaD69euTm5sb2djYEAACoGQAyNLSkjZs2EChoaGUnJwsfjo1z549o65du5KVlRU1bNiQli1bRpGRkWqvCwkJIUdHR+Xz1KpVS+3zVatWjXbu3EmfPn1Se2/GMovPIBhTcfr0aWzYsAEDBw5Eu3btlCP58PBwbNq0CZ6enujatSsaN24MKysrVKhQAcbGxsrrQ0JC4Ofnh7CwMFhYWKBMmTJo1qwZjIwy3h9E9U9S9QxD1YsXL9ChQwfcvn1b2daoUSP88MMP6N69e6rX/f7776hVqxa+/vprte2MpYcLBGMqIiIilJvFor/++gtPnjzB4sWLxShPvH//Hjt27MDYsWMxceJE/P7776kKA1LukZQvXx7//fcf36hmmZLxwxrGDIC1tbXG4nDx4kWMGzcOPXv2FKM8Y2VlhaCgIADADz/8oLE4AMCGDRtQrFgxLg4s07hAMJYBv/32G/r374+GDRuKUZ7Zu3cvVq5ciT/++AOlS5cWYyBlcaJx48Zh6NChYsTYZ3GBYOwzPDw84OnpiX79+olRhmzcuFHr16bl7du3GDVqFFxcXDBu3DgxVqxbtw5JSUn46quvxIixz+ICwdhnLF26FADQrl07MfqsY8eOYfjw4RgzZowYpfLy5UssX74cNjY2cHNzQ0BAgNhEsWrVKoSHh2PWrFlipAgJCcGMGTPQp08f1KpVS4wZ+ywuEIylY9KkSbhx4wYWLlwoRp8VEBCA7t27Y9SoUfjiiy/EWM2pU6dQuXJlTJkyRemJ5OfnJzYDUt53zpw5aNu2LTp16iTGik2bNoGI8O2334oRYxkj9ntljP2/v//+mwBQ9erVKTIyUozTFRERQY0bNyYrKysKDQ0VYzX//PMPSZJERYoUoevXr4txKkOHDiUA5OnpKUYKX19fAkD29vb04cMHMWYsQ7hAMKbBo0ePqGTJkgSAzp8/L8afNWzYMAJA//zzjxipuXTpkjLIzcfHR4xTOXPmDAGggQMHipGaSZMmEQBauXKlGDGWYVwgGBO8evWKmjRpQgBo5syZYpyuhIQEZec8ZcoUMVbz5MkTsrOzIwC0b98+MdZowIABBIC8vLzESBEYGEjyqOrHjx+LMWMZxgWCMcHUqVMJAPXs2ZMSExPFOF2jRo0iANS2bVt6//69GKvp1q0bAaDZs2eLkUb3798nANSyZUsxUiOfvYwYMUKMGMsULhCMpXj69Cn17duXAFC9evU+u4MX/fLLL8oO/HP3LJYsWUIAqEWLFpSQkCDGGsmv+fvvv8VIce7cOeXsISAgQIwZyxQuEIylaNasGQEgFxcXunPnjhina+PGjQSAihcvTsHBwWKs5sGDB8p9h2vXrolxmiwsLAgAhYeHi5FCPoOZP3++GDGWaVwgGCOi8+fPEwAaN24cxcbGinG64uPjlR3+2bNnxVhNQkICNW3alADQX3/9JcZpkntULViwQIwUoaGhytkD91xi2YHHQTAGoHnz5hgxYgR+/vlnFCpUSIzTNWTIEBARFi1ahJYtW4qxmpUrV+Ly5ctwdHTM1PQXmzZtAgB0795djBTy0qLz58/XuHARY5nFs7kyloKI0pzwLi0bN27EsGHD4OTkhKtXr6ZbXJ4+fQoHBwcQEU6ePJnh6S/CwsJQsmRJtGjRAufOnRNjNTdv3kS9evUy/f9gTBM+g2AshTY71YkTJwIA/vzzz3SLAwB4enqCiODq6prh4oCUCfcAoG3btmKUiouLi1b/D8Y04QLBmJbmzZuHmJgYjBo1Ci1atBDjVEaMGAFPT0+sX79ejNJVvXp1uLq68nxKLNfxJSbGtBAREQEbGxsQEeLj42Fubi42yVbaXP5iLKv4DIIxLVy6dAlEhPHjx+d4cYCWl78YyyouEIxp4fz580DKNX/G9BUXCMa04OrqCqT0MGJMX/E9CMa0xPcFmL7jMwjGtMTFgek7LhCMMcY04gLBGGNMIy4QjDHGNOICwRhjTCMuEIwxxjTiAsEYY0wjLhCMMcY04gLBGGNMIy4QjDHGNOICwRhjTCMuEIwxxjTiAsEYY0wjLhCMMcY04gLBGGNMIy4QjDHGNOICwRhjTKP/AxeSY5sbcs+PAAAAAElFTkSuQmCC" vertex="1" parent="1">
          <mxGeometry x="778" y="520" width="132" height="166.35" as="geometry" />
        </mxCell>
        <mxCell id="NrqMM1b8UnGH21ajet8I-73" value="Pont H" style="text;html=1;align=center;verticalAlign=middle;whiteSpace=wrap;rounded=0;" vertex="1" parent="1">
          <mxGeometry x="830" y="490" width="60" height="30" as="geometry" />
        </mxCell>
        <mxCell id="NrqMM1b8UnGH21ajet8I-74" value="Rsens" style="text;html=1;align=center;verticalAlign=middle;whiteSpace=wrap;rounded=0;" vertex="1" parent="1">
          <mxGeometry x="860" y="640" width="60" height="30" as="geometry" />
        </mxCell>
        <mxCell id="NrqMM1b8UnGH21ajet8I-76" value="" style="endArrow=none;dashed=1;html=1;dashPattern=1 3;strokeWidth=2;rounded=0;exitX=1;exitY=0.5;exitDx=0;exitDy=0;entryX=0;entryY=0.5;entryDx=0;entryDy=0;" edge="1" parent="1" source="NrqMM1b8UnGH21ajet8I-14" target="NrqMM1b8UnGH21ajet8I-15">
          <mxGeometry width="50" height="50" relative="1" as="geometry">
            <mxPoint x="840" y="650" as="sourcePoint" />
            <mxPoint x="890" y="600" as="targetPoint" />
          </mxGeometry>
        </mxCell>
        <mxCell id="NrqMM1b8UnGH21ajet8I-77" value="" style="endArrow=none;dashed=1;html=1;dashPattern=1 3;strokeWidth=2;rounded=0;exitX=1;exitY=0.5;exitDx=0;exitDy=0;entryX=0;entryY=0.5;entryDx=0;entryDy=0;" edge="1" parent="1" source="NrqMM1b8UnGH21ajet8I-4" target="NrqMM1b8UnGH21ajet8I-56">
          <mxGeometry width="50" height="50" relative="1" as="geometry">
            <mxPoint x="820" y="290" as="sourcePoint" />
            <mxPoint x="870" y="240" as="targetPoint" />
          </mxGeometry>
        </mxCell>
        <mxCell id="NrqMM1b8UnGH21ajet8I-78" value="&lt;h1 style=&quot;margin-top: 0px;&quot;&gt;MOTION SYSTEM&lt;/h1&gt;" style="text;html=1;whiteSpace=wrap;overflow=hidden;rounded=0;fillColor=#f8cecc;strokeColor=#b85450;" vertex="1" parent="1">
          <mxGeometry x="740" y="40" width="220" height="40" as="geometry" />
        </mxCell>
        <mxCell id="NrqMM1b8UnGH21ajet8I-79" value="&lt;h1 style=&quot;margin-top: 0px;&quot;&gt;FREIN AVEC RETOUR DE FORCE&lt;/h1&gt;" style="text;html=1;whiteSpace=wrap;overflow=hidden;rounded=0;fillColor=#d5e8d4;strokeColor=#82b366;" vertex="1" parent="1">
          <mxGeometry x="920" y="347.5" width="390" height="42.5" as="geometry" />
        </mxCell>
      </root>
    </mxGraphModel>
  </diagram>
</mxfile>
